<?xml version="1.0" encoding="utf-8"?>
<!-- Generator: Adobe Illustrator 27.0.0, SVG Export Plug-In . SVG Version: 6.00 Build 0)  -->
<svg version="1.1" id="Layer_1" xmlns="http://www.w3.org/2000/svg" xmlns:xlink="http://www.w3.org/1999/xlink" x="0px" y="0px"
	 viewBox="0 0 595.28 841.89" style="enable-background:new 0 0 595.28 841.89;" xml:space="preserve">
<style type="text/css">
	.st0{fill:#555972;stroke:#1F2652;stroke-width:2.8613;stroke-miterlimit:10;}
	.st1{fill:#C8CDE8;}
	.st2{fill:#F3B6AB;}
	.st3{fill:#FFFFFF;stroke:#181D42;stroke-width:6.8222;stroke-linecap:round;stroke-miterlimit:10;}
	.st4{fill:#181D42;}
	.st5{fill:#FEDD6F;stroke:#FAB174;stroke-width:3.6775;stroke-linecap:round;stroke-miterlimit:10;}
	.st6{fill:#FAB174;}
	.st7{font-family:'MyriadPro-Regular';}
	.st8{font-size:37.2485px;}
	.st9{fill:#CE3675;}
	.st10{fill:#FFFFFF;}
	.st11{fill:#E95A7B;}
	.st12{fill:#6485BE;stroke:#4E6BB0;stroke-width:2.7289;stroke-linecap:round;stroke-miterlimit:10;}
	.st13{fill:#1F2652;}
	.st14{fill:#6485BE;stroke:#4E6BB0;stroke-width:2.7289;stroke-miterlimit:10;}
	.st15{fill:none;stroke:#4E6BB0;stroke-width:2.7289;stroke-linecap:round;stroke-miterlimit:10;}
	.st16{fill:#BACDE4;}
	.st17{fill:#4E6BB0;}
	.st18{fill:#F7A3A4;}
	.st19{fill:#FEC674;}
	.st20{fill:#6485BE;}
	.st21{fill:#28599E;}
	.st22{fill:none;stroke:#FFFFFF;stroke-width:5.4577;stroke-linecap:round;stroke-miterlimit:10;}
</style>
<g>
	<g>
		<g>
			<g>
				<path class="st0" d="M460.3,306.57l-50.33-47.73c-0.5-0.47-1.2-0.33-1.56,0.31l-18.36,32.41c-0.37,0.64-0.26,1.55,0.24,2.02
					l50.33,47.73c0.5,0.47,1.2,0.33,1.56-0.31l18.36-32.41C460.9,307.95,460.79,307.04,460.3,306.57z"/>
				<g>
					<path class="st1" d="M421.45,280.46c-0.19-0.04-0.37-0.13-0.53-0.29l-11.83-11.4c-0.53-0.51-0.64-1.48-0.25-2.17
						c0.4-0.69,1.15-0.83,1.68-0.32l11.83,11.4c0.53,0.51,0.64,1.48,0.25,2.17C422.32,280.33,421.87,280.54,421.45,280.46z"/>
					<ellipse class="st1" cx="426.82" cy="284.26" rx="1.29" ry="1.67"/>
				</g>
			</g>
			<g>
				<g>
					<path class="st2" d="M425.46,374.69l2.13-27.96c0.07-1.4-0.51-3.14-0.82-4.48l-7.86-25.36c-0.88-4.55,2.31-2.87,2.87-2.2
						l18.93,24.15c0.41,0.48,1.03,0.52,1.47,0.08l8.75-8.62c0.13-0.13,0.31,0.01,0.29,0.22L445.49,385L425.46,374.69z"/>
					<g>
						<g>
							<path class="st3" d="M136,356.87l-36.86-58.57c-0.19-0.31-0.16-0.76,0.08-1.01l60.31-63.53c0.24-0.25,0.59-0.2,0.78,0.1
								l36.86,58.57c0.19,0.31,0.16,0.76-0.08,1.01l-60.31,63.53C136.54,357.23,136.19,357.18,136,356.87z"/>
							<g>
								<path class="st4" d="M173.57,284.46c-0.36,0-0.72-0.21-0.96-0.62l-13.49-23.23c-0.4-0.69-0.29-1.66,0.24-2.17
									c0.53-0.51,1.28-0.38,1.68,0.31l13.49,23.23c0.4,0.69,0.29,1.66-0.24,2.17C174.08,284.36,173.82,284.46,173.57,284.46z"/>
								<path class="st4" d="M170.6,298.64c-0.36,0-0.72-0.21-0.96-0.62l-21.59-37.16c-0.4-0.69-0.29-1.66,0.24-2.17
									c0.53-0.51,1.28-0.38,1.68,0.31l21.59,37.16c0.4,0.69,0.29,1.66-0.24,2.17C171.1,298.53,170.85,298.64,170.6,298.64z"/>
								<path class="st4" d="M162.99,310.59c-0.36,0-0.72-0.21-0.96-0.62l-22.91-39.44c-0.4-0.69-0.29-1.66,0.24-2.17
									c0.53-0.51,1.28-0.37,1.68,0.31l22.91,39.44c0.4,0.69,0.29,1.66-0.24,2.17C163.49,310.49,163.24,310.59,162.99,310.59z"/>
								<path class="st4" d="M153.53,316.04c-0.36,0-0.72-0.21-0.96-0.62l-20.71-35.65c-0.4-0.69-0.29-1.66,0.24-2.17
									c0.53-0.51,1.28-0.38,1.68,0.31l20.71,35.65c0.4,0.69,0.29,1.66-0.24,2.17C154.03,315.93,153.78,316.04,153.53,316.04z"/>
								<path class="st4" d="M147.7,327.12c-0.36,0-0.72-0.21-0.96-0.62l-21.43-36.88c-0.4-0.69-0.29-1.66,0.24-2.17
									c0.53-0.51,1.28-0.37,1.68,0.31l21.43,36.88c0.4,0.69,0.29,1.66-0.24,2.17C148.21,327.02,147.95,327.12,147.7,327.12z"/>
								<path class="st4" d="M137.16,335.39c-0.36,0-0.72-0.21-0.96-0.62l-21.66-37.29c-0.4-0.69-0.29-1.66,0.24-2.17
									c0.53-0.51,1.28-0.38,1.68,0.31l21.66,37.29c0.4,0.69,0.29,1.66-0.24,2.17C137.66,335.29,137.41,335.39,137.16,335.39z"/>
							</g>
						</g>
						<g>
							<path class="st2" d="M178.65,311.44c-2.67-2-7.11,3.25-10.97,11.91c-1.46,3.28-3.37,6.75-4.63,10.56
								c-0.54,1.65-17.65,17.53-17.54,18.8l2.64,28.76l22.02-3.32l1.1-34.51c0.11-3.35,0.87-6.63,2.33-9.4
								c0.71-1.35,1.42-2.81,2.11-4.35C179.57,321.24,181.33,313.44,178.65,311.44z"/>
							<g>
								<g>
									<ellipse class="st5" cx="516.32" cy="420.21" rx="19.51" ry="25.24"/>
									<text transform="matrix(0.7729 0 0 1 509.0627 432.294)" class="st6 st7 st8">$</text>
								</g>
								<g>
									<g>
										<g>
											
												<ellipse transform="matrix(0.0332 -0.9995 0.9995 0.0332 -341.4197 462.6962)" class="st9" cx="68.44" cy="407.82" rx="52.16" ry="37.36"/>
											
												<ellipse transform="matrix(0.0332 -0.9995 0.9995 0.0332 -343.6299 464.0074)" class="st10" cx="68.01" cy="409.61" rx="40.83" ry="29.24"/>
										</g>
										<g>
											
												<ellipse transform="matrix(0.0332 -0.9995 0.9995 0.0332 -345.0657 465.5045)" cx="68.07" cy="411.1" rx="1.87" ry="1.34"/>
											<g>
												<path d="M68,411.76c-0.09-0.02-0.17-0.05-0.26-0.11c-0.44-0.29-0.62-1.03-0.4-1.65l7.27-20.48
													c0.22-0.62,0.75-0.89,1.19-0.59c0.44,0.29,0.62,1.03,0.4,1.65l-7.27,20.48C68.75,411.56,68.37,411.83,68,411.76z"/>
												<path d="M76.36,395.76c-0.38-0.07-0.72-0.42-0.86-0.95l-0.78-2.8l-1.76,1c-0.57,0.33-1.21-0.06-1.43-0.85
													c-0.22-0.79,0.07-1.7,0.64-2.02l2.8-1.58c0.27-0.16,0.58-0.15,0.85,0c0.27,0.16,0.48,0.46,0.58,0.84l1.17,4.23
													c0.22,0.79-0.07,1.7-0.64,2.02C76.74,395.77,76.55,395.8,76.36,395.76z"/>
											</g>
											<g>
												<path d="M53.87,412.39c-0.42-0.08-0.74-0.57-0.75-1.19c0-0.68,0.39-1.26,0.88-1.28l14.07-0.62
													c0.48-0.02,0.89,0.52,0.9,1.2c0,0.68-0.39,1.26-0.88,1.28l-14.07,0.62C53.97,412.4,53.92,412.39,53.87,412.39z"/>
												<path d="M56.05,415.49c-0.2-0.04-0.4-0.16-0.57-0.36l-2.23-2.72c-0.46-0.56-0.49-1.53-0.08-2.18l2.19-3.47
													c0.41-0.65,1.11-0.72,1.57-0.17c0.46,0.56,0.49,1.53,0.08,2.18l-1.45,2.29l1.4,1.71c0.46,0.56,0.49,1.54,0.08,2.18
													C56.79,415.38,56.41,415.56,56.05,415.49z"/>
											</g>
										</g>
									</g>
									<g>
										<path class="st2" d="M529.22,426.7c-0.26-0.52-0.41-0.8-0.41-0.8c-4.7-5.4-10.8-0.81-14.97,5.26l-7.81,11.38
											c-0.2,0.29-0.57,0.11-0.58-0.28c-0.24-7.99-0.91-20.29-5.5-18.39c-3.79,1.57-1.72,11.59-1.17,20.81
											c0.12,2.01,0.08,3.94,0.22,5.71c0.11,1.35-0.2,2.68-0.9,3.7l-24.7,35.98l11.09,12.75c4.7,5.4,11.95,4.84,16.12-1.23
											l26.83-41.48C533.55,450.64,534.36,437.09,529.22,426.7z"/>
										<g>
											<path class="st2" d="M108.66,476.16c-4.73-7.47-8.89-15.51-12.44-24.01l-0.4-0.95c-0.76-1.82-1.21-3.8-1.32-5.86
												c-0.35-6.44-1.4-20.9-3.79-21.7c-4.04,1.45,1.39,22.7-3.41,28.54c0,0-0.74,0.81-1.27,1.09
												c-3.92,2.08-7.01,4.2-11.52,4.84c-1.94,0.27-3.61,0.73-5.54,0.4c-2.41-0.41-5.37,0.3-4.85,0.81
												c4.94,4.79,21.79,36.14,36.96,44.03l10.56-22.47L108.66,476.16z"/>
											<g>
												<g>
													<path class="st11" d="M501.32,713.88h-44.29c-0.94,0-1.72-0.95-1.78-2.16l-3.77-79.03c-0.06-1.33,0.75-2.45,1.78-2.45
														h51.83c1.03,0,1.84,1.12,1.78,2.45l-3.77,79.03C503.04,712.93,502.26,713.88,501.32,713.88z"/>
													<path class="st11" d="M501.36,703.22c-1.46,0-2.84-1.16-3.38-3.04c-0.69-2.41,0.26-5.09,2.13-5.98
														c17.31-8.28,19.16-17.35,19.43-22.13c0.35-6.29-0.96-8.56-2.93-10.7c-3.69-3.99-9.78-5.72-12.11-5.27
														c-1.95,0.38-3.8-1.35-4.1-3.89c-0.3-2.54,1.03-4.91,2.99-5.31c0.47-0.09,11.63-2.26,18.59,5.28
														c5.38,5.83,7.86,13.64,6.82,21.43c-1.1,8.18-6.53,19.92-26.19,29.32C502.19,703.13,501.77,703.22,501.36,703.22z"/>
												</g>
												<g>
													<g>
														<g>
															<g>
																<g>
																	<path class="st12" d="M173.53,366.63l-28.54,14.52c-0.37,0.19-0.57,0.7-0.48,1.2l13.12,67.51
																		c1.62,8.33,5.08,15.84,10,21.6c10.9,12.76,35.46,30.82,54.85,40.15l43.62-51.98c0,0-45.28-7.43-58.24-18.05
																		c-1.88-1.54-3.78-3-5.76-4.3c-5.81-3.82-18.49-17.95-27.51-69.9C174.48,366.76,173.98,366.4,173.53,366.63z"/>
																	<path class="st12" d="M148.15,401.07c0,0,12.51-18.27,29.99-15.84"/>
																</g>
																<g>
																	<path class="st12" d="M418.68,366.63l28.54,14.52c0.37,0.19,0.57,0.7,0.48,1.2l-13.12,67.51
																		c-1.62,8.33-5.08,15.84-10,21.6c-10.9,12.76-35.46,30.82-54.85,40.15l-43.62-51.98c0,0,45.28-7.43,58.24-18.05
																		c1.88-1.54,3.78-3,5.76-4.3c5.81-3.82,18.49-17.95,27.51-69.9C417.73,366.76,418.23,366.4,418.68,366.63z"/>
																	<path class="st12" d="M444.06,401.07c0,0-12.51-18.27-29.99-15.84"/>
																</g>
															</g>
															<g>
																<path class="st13" d="M263.04,508.27c-25.51,0-43.66-33.59-33.66-63.96c0.32-0.96,0.66-1.93,1.03-2.89
																	c0,0,12.52-29.47,5.38-53.19c-1.13-3.74-2.03-7.57-2.46-11.55c-1.23-11.62-2.73-34.75,2.35-50.97
																	c10.4-33.18,23.01-51.91,60.87-51.5c0,0,46.74-5.46,57.47,48.51c0,0,8.87,27.73-0.83,75.04c0,0-5.72,28.89,0.94,38
																	c0.34,0.47,1.85,4.25,3.42,9.95c8.42,30.48-9.05,62.56-34.07,62.56H263.04z"/>
																<g>
																	<g>
																		<path class="st14" d="M109.92,476.36L95,509.25c-0.6,1.33-0.4,3.03,0.49,4.06l39.08,45.15
																			c2.06,2.38,4.71,3.76,7.47,3.88l58.1,2.58l25.24-60.26l-68.63,8.35c-2.95,0.36-5.91-0.7-8.3-2.97l-36.1-34.33
																			C111.55,474.95,110.42,475.25,109.92,476.36z"/>
																		<path class="st12" d="M104.39,523.08c0,0,3.24-21.66,17.63-37.85"/>
																	</g>
																	<g>
																		<path class="st14" d="M480.81,476.36l14.92,32.9c0.6,1.33,0.4,3.03-0.49,4.06l-39.08,45.15
																			c-2.06,2.38-4.71,3.76-7.47,3.88l-58.1,2.58l-25.24-60.26l68.63,8.35c2.95,0.36,5.91-0.7,8.3-2.97l36.1-34.33
																			C479.18,474.95,480.31,475.25,480.81,476.36z"/>
																		<path class="st12" d="M486.34,523.08c0,0-3.24-21.66-17.63-37.85"/>
																	</g>
																	<g>
																		<g>
																			<g>
																				<path class="st14" d="M247.91,701.46c-23.64,0.43-45.96-15.94-56.65-43.23c-3.3-8.43-5.59-17.61-5.82-27.13
																					c0,0-8.45-85.43,45.37-138.87c0,0,35.67-33.2,62.9-34.01c0,0,26.06-1.14,55.24,20.42
																					c2.35,1.73,4.57,3.73,6.7,5.88c13.99,14.14,62.05,68.43,55.08,140.51c0,0-0.69,7.14-3.14,17.38
																					c-8.08,33.72-32.17,56.75-59.45,57.24L247.91,701.46z"/>
																				<path class="st15" d="M234.54,540.22c0,0-11.53,12.96-8.72,24.7"/>
																				<path class="st15" d="M361.32,540.22c0,0,9.39,14.17,8.45,24.7"/>
																				<path class="st15" d="M265.65,467.91c0,0-0.61,33.62-0.31,35.36l10.05,60.73"/>
																				<path class="st15" d="M324.75,466.38c0,0,1.35,33.33,1.09,34.92l-10.44,62.7"/>
																			</g>
																			<g>
																				<g>
																					<g>
																						<ellipse class="st2" cx="295.69" cy="380.45" rx="40.37" ry="67.72"/>
																						
																							<ellipse transform="matrix(0.998 -0.0633 0.0633 0.998 -23.56 16.8027)" class="st2" cx="253.56" cy="380.45" rx="6.12" ry="9.85"/>
																						
																							<ellipse transform="matrix(0.0653 -0.9979 0.9979 0.0653 -65.0144 693.5294)" class="st2" cx="337.7" cy="381.47" rx="9.84" ry="6.12"/>
																					</g>
																					<rect x="280.08" y="423.5" class="st2" width="33.56" height="46.46"/>
																				</g>
																				<path class="st2" d="M321.22,464.58c-2.73-1.72-5.14-4.34-6.53-7.84c-1.68-4.22-1.73-8.67,0.38-12.97
																					l5.74-11.71c-6.78-7.57-15.57-12.21-25.23-12.21c-9.57,0-18.27,4.55-25.02,12l5.45,7.05
																					c4.17,5.4,4.17,14.14,0,19.54l-3.5,4.53c-1.58,2.04-6.38,4.34-6.38,4.95v34.52
																					c7.1,10.78,17.65,17.63,29.46,17.63c11.93,0,22.07-7.25,29.17-18.22l-0.51-35
																					C324.24,466.55,322.72,465.52,321.22,464.58z"/>
																				<path class="st10" d="M324.72,498.88c-7.1,10.96-17.43,16.36-29.35,16.36c-11.8,0-22.15-6.3-29.25-17.07
																					c-0.05,1.56,0,2.92,0,4.26l10.21,62.49h38.19C320.9,528.99,325.79,497.29,324.72,498.88z"/>
																			</g>
																		</g>
																		<g>
																			<path class="st16" d="M375.7,711.79H215.17l-14.99-141.55c-0.35-3.29,1.63-6.23,4.2-6.23h182.1
																				c2.57,0,4.55,2.93,4.2,6.23L375.7,711.79z"/>
																			<ellipse class="st10" cx="295.43" cy="637.9" rx="16.62" ry="21.51"/>
																		</g>
																	</g>
																</g>
															</g>
														</g>
														<path class="st13" d="M565.22,740.7H30.06c-2.56,0-4.66-2.1-4.66-4.66v-19.6c0-2.56,2.1-4.66,4.66-4.66h535.16
															c2.56,0,4.66,2.1,4.66,4.66v19.6C569.88,738.61,567.78,740.7,565.22,740.7z"/>
													</g>
													<path class="st17" d="M547.26,764.59H47.08c-1.95,0-3.53-2.49-3.53-5.57s1.58-5.57,3.53-5.57h500.18
														c1.95,0,3.53,2.49,3.53,5.57S549.21,764.59,547.26,764.59z"/>
												</g>
											</g>
										</g>
									</g>
								</g>
							</g>
						</g>
					</g>
				</g>
				<path class="st13" d="M337.4,317.93c-10.68-20.09-27.44-29.17-37.44-20.28c-2.43,2.16-4.22,5.19-5.41,8.82
					c-1.14-4.58-3.12-8.4-6.01-10.97c-10-8.89-26.76,0.18-37.44,20.28c-10.68,20.09-11.22,43.59-1.22,52.49
					c10,8.89,26.76-0.18,37.44-20.28c3.1-5.83,5.32-11.95,6.7-17.92c1.31,6.64,3.7,13.53,7.17,20.07
					c10.68,20.09,27.44,29.17,37.44,20.28C348.62,361.52,348.07,338.02,337.4,317.93z"/>
			</g>
		</g>
		<g>
			<path d="M282.55,377.56c-0.34,0-0.67-0.18-0.91-0.54c-1.58-2.39-3.28-3.61-5.04-3.61c0,0-0.01,0-0.01,0
				c-3.06,0-5.49,3.58-5.51,3.62c-0.44,0.65-1.19,0.72-1.69,0.16c-0.5-0.56-0.56-1.53-0.13-2.18c0.13-0.19,3.16-4.7,7.33-4.7
				c2.5,0,4.81,1.58,6.87,4.7c0.43,0.65,0.37,1.63-0.13,2.19C283.1,377.44,282.82,377.56,282.55,377.56z"/>
			<path d="M319.68,377.56c-0.34,0-0.67-0.18-0.91-0.54c-1.58-2.39-3.28-3.61-5.03-3.61c0,0-0.01,0-0.01,0
				c-3.06,0-5.49,3.58-5.51,3.62c-0.43,0.65-1.19,0.72-1.69,0.16c-0.5-0.56-0.56-1.53-0.13-2.18c0.13-0.19,3.16-4.7,7.33-4.7
				c2.5,0,4.81,1.58,6.87,4.7c0.43,0.65,0.37,1.63-0.13,2.19C320.23,377.44,319.96,377.56,319.68,377.56z"/>
			<path d="M276.36,396.24c-1.32,0-2.4-1.39-2.4-3.1v-8.03c0-1.71,1.07-3.1,2.4-3.1s2.4,1.39,2.4,3.1v8.03
				C278.76,394.85,277.68,396.24,276.36,396.24z"/>
			<path d="M313.49,396.24c-1.33,0-2.4-1.39-2.4-3.1v-8.03c0-1.71,1.07-3.1,2.4-3.1c1.33,0,2.4,1.39,2.4,3.1v8.03
				C315.89,394.85,314.82,396.24,313.49,396.24z"/>
			<ellipse class="st18" cx="270.17" cy="405.24" rx="6.83" ry="4.55"/>
			<ellipse class="st18" cx="319.14" cy="405.24" rx="6.83" ry="4.55"/>
			<path class="st18" d="M295.77,423.5c-5.09,0-9.03-4.35-9.09-4.42c-0.5-0.56-0.55-1.54-0.11-2.19c0.43-0.65,1.19-0.72,1.69-0.15
				c0.3,0.33,7.36,8.06,14.13,0.03c0.49-0.58,1.25-0.54,1.69,0.09c0.45,0.63,0.42,1.61-0.07,2.19
				C301.21,422.39,298.34,423.5,295.77,423.5z"/>
		</g>
	</g>
	<g>
		<g>
			<g>
				<g>
					<g>
						<path class="st19" d="M335.14,154.04c0.7-23.09-13.32-42.51-31.23-43.11c-16.25-0.54-29.67,15.64-32.47,36.35
							c-3.13,23.15,4.17,44.19,15.3,54.64c0.83,0.77,1.34,1.97,1.34,3.28l0,5.46c0,1.77,0.72,2.68,1.6,2.68h26.53
							c0.88,0,1.6-0.93,1.6-2.07v-6c0-1.32,0.52-2.52,1.35-3.3C328.15,193.57,334.43,177.51,335.14,154.04z"/>
						<path class="st10" d="M314.35,202.04c-0.13,0-0.25-0.03-0.38-0.08c-0.63-0.27-0.97-1.15-0.76-1.96
							c4.74-18.35,3.47-25.44,1.56-28.16c-1.62-2.31-4.11-1.87-5.11-1.57c-0.15,0.04-0.3,0.12-0.45,0.23
							c-0.59,0.43-1.13,0.86-1.64,1.29c0.84,1.43,1.41,3.25,1.52,5.52c0,0.21-0.04,1.67-0.38,3.36c-0.65,3.19-2.96,4.39-4.92,3.92
							c-2.2-0.53-3.57-2.86-3.34-5.66c0.21-2.52,1.32-4.95,3.32-7.28c-1.14-0.75-2.3-1.01-2.87-1.09c-1.61-0.23-3.22,0.07-4.67,0.85
							c0.06,0.04,0.13,0.09,0.19,0.13c2.39,1.72,3.7,4.66,3.7,8.3c-0.05,0.92-0.55,8-4.25,8.96c-2.98,0.78-5.34-2.75-6.26-6.37
							c-0.41-1.61-0.99-5.25,0.83-8.87c-0.14,0.07-0.27,0.15-0.38,0.24c-2.8,2.26-4.25,4.92-4.44,8.14
							c-0.48,8.26,7.6,17.26,7.68,17.35c0.5,0.56,0.56,1.54,0.13,2.19c-0.43,0.65-1.18,0.74-1.69,0.18
							c-0.37-0.41-9.08-10.11-8.52-19.94c0.24-4.22,2.11-7.77,5.57-10.55c1.1-0.89,2.65-1.21,4.22-1c2.32-2.14,5.23-3.12,8.14-2.71
							c1.58,0.23,3.24,0.9,4.62,2.13c0.68-0.61,1.44-1.22,2.25-1.81c0.35-0.25,0.71-0.44,1.09-0.55c1.4-0.42,4.95-1.02,7.42,2.5
							c3.4,4.84,3.05,15.35-1.05,31.23C315.32,201.63,314.85,202.04,314.35,202.04z M293.67,173.47c-2.57,2.96-2.23,6.27-1.79,7.99
							c0.61,2.37,2.05,4.69,3.51,4.3c1.64-0.43,2.24-4.6,2.33-6.03c0-3.04-1.35-4.66-2.47-5.47
							C294.75,173.89,294.21,173.63,293.67,173.47z M305.66,173.63c-1.71,1.89-2.67,3.79-2.82,5.63c-0.15,1.81,1.13,2.22,1.39,2.28
							c0.66,0.15,1.83-0.02,2.17-1.66c0.27-1.33,0.3-2.5,0.3-2.52C306.61,175.78,306.21,174.57,305.66,173.63z"/>
					</g>
					<g>
						<ellipse cx="303.25" cy="237.86" rx="4.64" ry="7.11"/>
						<g>
							<path class="st20" d="M318.02,221.84h-30.17c-1.04,0-1.89-0.85-1.89-1.89v-7.96c0-1.04,0.85-1.89,1.89-1.89h30.17
								c1.04,0,1.89,0.85,1.89,1.89v7.96C319.91,220.99,319.06,221.84,318.02,221.84z"/>
							<path class="st20" d="M316.26,230.75H289.6c-1.04,0-1.89-0.85-1.89-1.89v-7.96c0-1.04,0.85-1.89,1.89-1.89h26.66
								c1.04,0,1.89,0.85,1.89,1.89v7.96C318.15,229.9,317.3,230.75,316.26,230.75z"/>
							<path class="st20" d="M314.25,238.65h-22.64c-1.04,0-1.89-0.85-1.89-1.89v-7.96c0-1.04,0.85-1.89,1.89-1.89h22.64
								c1.04,0,1.89,0.85,1.89,1.89v7.96C316.14,237.79,315.29,238.65,314.25,238.65z"/>
						</g>
					</g>
				</g>
				<g>
					<path class="st19" d="M296.78,96c-1.17,0-2.29-0.9-2.77-2.39l-3.52-10.93c-0.64-1.98,0.09-4.25,1.61-5.07
						c1.53-0.83,3.28,0.11,3.92,2.09l3.52,10.93c0.64,1.98-0.09,4.25-1.62,5.07C297.55,95.9,297.16,96,296.78,96z"/>
					<path class="st19" d="M330.57,107.84c-0.65,0-1.31-0.27-1.86-0.84c-1.3-1.33-1.51-3.77-0.48-5.45l6.34-10.32
						c1.03-1.68,2.92-1.96,4.21-0.63c1.3,1.33,1.51,3.77,0.48,5.45l-6.34,10.32C332.33,107.34,331.45,107.84,330.57,107.84z"/>
					<path class="st19" d="M352.16,160.37h-9.62c-1.66,0-3-1.74-3-3.88c0-2.14,1.34-3.88,3-3.88h9.62c1.66,0,3,1.74,3,3.88
						C355.16,158.63,353.82,160.37,352.16,160.37z"/>
					<path class="st19" d="M342.54,213.98c-0.68,0-1.37-0.3-1.93-0.92l-7.38-8.06c-1.27-1.38-1.42-3.83-0.36-5.47
						c1.07-1.64,2.95-1.85,4.23-0.46l7.38,8.06c1.27,1.38,1.42,3.83,0.36,5.47C344.24,213.51,343.39,213.98,342.54,213.98z"/>
					<path class="st19" d="M259.7,205.92c-0.93,0-1.85-0.56-2.44-1.62c-0.97-1.74-0.66-4.16,0.69-5.42l7.51-6.98
						c1.34-1.25,3.22-0.85,4.19,0.89c0.97,1.74,0.66,4.16-0.69,5.42l-7.51,6.98C260.92,205.68,260.3,205.92,259.7,205.92z"/>
					<path class="st19" d="M251.48,160.37c-1.49,0-2.79-1.44-2.97-3.41c-0.2-2.13,0.97-4.06,2.61-4.32l9.62-1.52
						c1.66-0.26,3.14,1.25,3.34,3.38c0.2,2.13-0.97,4.06-2.61,4.32l-9.62,1.52C251.72,160.36,251.6,160.37,251.48,160.37z"/>
					<path class="st19" d="M269.32,121.5c-0.55,0-1.1-0.19-1.6-0.6l-8.21-6.71c-1.4-1.14-1.82-3.54-0.94-5.35
						c0.88-1.81,2.74-2.36,4.14-1.21l8.21,6.71c1.4,1.14,1.82,3.54,0.94,5.35C271.28,120.86,270.31,121.5,269.32,121.5z"/>
				</g>
			</g>
			<g>
				<g>
					<g>
						<path class="st21" d="M315.21,221.82h-24.88c-0.67,0-1.28-0.18-1.87-0.54l-0.25-0.24c-0.05-0.05-0.06-0.15-0.02-0.22
							c0.04-0.07,0.12-0.08,0.17-0.03l0.23,0.23c0.54,0.33,1.12,0.5,1.75,0.5h24.88c0.52,0,1.27-0.08,1.85-0.44
							c0.06-0.04,0.13-0.01,0.16,0.07c0.03,0.08,0,0.17-0.06,0.21C316.55,221.74,315.76,221.82,315.21,221.82z"/>
					</g>
				</g>
				<g>
					<g>
						<path class="st21" d="M313.93,230.71h-21.99c-0.59,0-1.13-0.18-1.66-0.54l-0.22-0.24c-0.05-0.05-0.05-0.15-0.02-0.22
							c0.04-0.07,0.1-0.08,0.15-0.03l0.2,0.23c0.47,0.33,0.99,0.5,1.55,0.5h21.99c0.46,0,1.12-0.08,1.64-0.44
							c0.06-0.04,0.12-0.01,0.14,0.07c0.02,0.08,0,0.17-0.05,0.21C315.12,230.63,314.42,230.71,313.93,230.71z"/>
					</g>
				</g>
			</g>
		</g>
		<path class="st10" d="M278.4,143.91c-0.25,0-0.5-0.05-0.75-0.15c-1.26-0.54-1.94-2.28-1.53-3.91c0.17-0.69,4.4-16.98,15.05-19.4
			c1.3-0.29,2.55,0.84,2.78,2.52c0.23,1.69-0.64,3.3-1.95,3.6c-7.79,1.77-11.28,15.09-11.32,15.22
			C280.35,143.09,279.41,143.91,278.4,143.91z"/>
		<ellipse class="st22" cx="299.19" cy="120.31" rx="0.59" ry="0.76"/>
	</g>
</g>
</svg>
