<?xml version="1.0" encoding="utf-8"?>
<!-- Generator: Adobe Illustrator 27.0.0, SVG Export Plug-In . SVG Version: 6.00 Build 0)  -->
<svg version="1.1" id="Layer_1" xmlns="http://www.w3.org/2000/svg" xmlns:xlink="http://www.w3.org/1999/xlink" x="0px" y="0px"
	 viewBox="0 0 595.28 841.89" style="enable-background:new 0 0 595.28 841.89;" xml:space="preserve">
<style type="text/css">
	.st0{fill:#F6DDB1;}
	.st1{fill:#EF403F;stroke:#EF403F;stroke-width:3.2111;stroke-miterlimit:10;}
	.st2{fill:#345289;}
	.st3{fill:#8BAFDD;stroke:#8BAFDD;stroke-width:3.2111;stroke-miterlimit:10;}
	.st4{fill:#26225C;stroke:#26225C;stroke-width:3.2111;stroke-miterlimit:10;}
	.st5{fill:#F37457;}
	.st6{fill:#F3B6AB;}
	.st7{fill:#EF403F;}
	.st8{fill:#F6CC7F;}
	.st9{fill:#26225C;}
	.st10{fill:#FFFFFF;}
	.st11{fill:#F15F43;}
	.st12{font-family:'HeadlineR-HM';}
	.st13{font-size:38.5334px;}
	.st14{fill:#6DC5A2;}
	.st15{font-size:40.9292px;}
	.st16{font-size:46.6966px;}
	.st17{fill:#EF9D92;}
	.st18{font-size:47.7243px;}
	.st19{fill:#FFC63A;}
	.st20{font-size:42.6635px;}
	.st21{font-size:42.6636px;}
	.st22{fill:#485AA8;}
	.st23{font-size:43.7866px;}
	.st24{font-size:43.7867px;}
</style>
<g>
	<g>
		<g>
			<g>
				<g>
					<path class="st0" d="M548.52,665.22h-236.2c-10.02,0-19.5,5.24-24.26,14.05c-3.39,6.28-5.24,14.18-1.42,22.72
						c4.34,9.71,14.43,15.58,25.07,15.58h236.81v-9.21h-4.61v-37.7h4.61V665.22z"/>
					<path class="st1" d="M550.2,663.57l5.44-7.14H117.37c-16.7,0-31.62,11.43-34.98,27.79c-0.17,0.85-0.32,1.71-0.44,2.59
						c-2.87,21.08,14.44,39.57,35.71,39.57h441.75l-7.6-7.28c-1.57-1.51-3.67-2.35-5.85-2.35l-234.34,0.39
						c-10.9,0.02-21.31-5.73-26.18-15.48c-3.34-6.68-4.34-15.1,1.92-24.44c5.34-7.98,14.63-12.41,24.24-12.39l235.27,0.4
						C548.17,665.22,549.41,664.61,550.2,663.57z"/>
				</g>
				<path class="st2" d="M404.52,698.52l3.38-4.11c1.57-1.91,3.91-3.01,6.38-3.01h29.38c2.27,0,4.43,0.99,5.92,2.71l52.05,60.15
					c0.84,0.97,0.15,2.48-1.13,2.48h-23.21c-1.51,0-2.94-0.72-3.84-1.93l-38.85-52.31c-1.28-1.72-3.26-2.78-5.4-2.87L404.52,698.52z
					"/>
			</g>
			<g>
				<path class="st0" d="M417.94,607v7.25h-2.51v29.02h2.51v8.96H219.71c-9.23,0-18.11-4.82-22.34-13.18
					c-2.91-5.74-3.77-13.04,1.73-21.25c4.65-6.93,12.6-10.81,20.84-10.81H417.94z"/>
				<path class="st3" d="M420.04,656.43H141.07c-10.53,0-23.4-0.66-30.56-8.38c-9.57-10.31-6.45-28.41-0.84-36.02
					c7.19-9.75,20.95-10.05,33.06-10.05h277.3c0,0,6.07,3.66,0,6.28H220.82c-7.92,0-15.99,1.85-20.47,8.38
					c-4.5,6.56-7.05,17.37-0.36,26.39c4.45,6,11.74,9.21,19.21,9.21h200.84C420.04,652.24,425.17,654.23,420.04,656.43z"/>
			</g>
			<g>
				<g>
					<path class="st0" d="M441.4,550.46v7.25h-2.51v29.02h2.51v8.96H243.17c-9.23,0-18.11-4.82-22.34-13.18
						c-2.91-5.74-3.77-13.04,1.73-21.25c4.65-6.93,12.6-10.81,20.84-10.81H441.4z"/>
					<path class="st4" d="M443.49,599.88H164.53c-10.53,0-23.4-0.66-30.56-8.38c-9.57-10.31-6.45-28.41-0.84-36.02
						c7.19-9.75,20.95-10.05,33.06-10.05h277.3c0,0,6.07,3.66,0,6.28H244.28c-7.92,0-15.99,1.85-20.47,8.38
						c-4.5,6.56-7.05,17.37-0.36,26.39c4.45,6,11.74,9.21,19.21,9.21h200.84C443.49,595.69,448.62,597.68,443.49,599.88z"/>
				</g>
				<path class="st5" d="M274.65,572.66h32.15c1.14,0,2.23,0.45,3.03,1.26l0,0c0.8,0.8,1.26,1.9,1.26,3.03v66.08l-10.68-10.68
					l-10.84,10.84v-64.87L274.65,572.66z"/>
			</g>
		</g>
		<g>
			<path class="st6" d="M311.36,117.59l0.25-7.86c0.01-0.28-0.2-0.5-0.47-0.56c-1.42-0.33-2.46-1.61-2.42-3.12l0.08-2.72
				c0.02-0.59-0.28-1.15-0.78-1.47l-3.8-2.4c-0.75-0.47-0.97-1.47-0.5-2.21c0.47-0.75,1.47-0.97,2.21-0.5l3.74,2.52
				c0.5,0.34,0.37-0.85,0.37-1.75l-0.82-9.32c-0.07-0.8,0.53-1.5,1.33-1.57c0.83-0.06,1.51,0.52,1.58,1.32l0.78,8.84l0.61,0.02
				l-0.06-10.26c0-0.76,0.71-1.38,1.6-1.38c0.77,0.06,1.61,0.62,1.61,1.39l0.06,10.35l0.29,0.01l0.86-9.39
				c0.08-0.88,0.87-1.54,1.74-1.45c0.88,0.08,1.53,0.86,1.45,1.74l-0.9,9.85c0.11,0.08,0.24,0.14,0.33,0.24l2.7-3.42
				c0.49-0.62,1.42-0.75,2.08-0.28c0.66,0.47,0.79,1.35,0.3,1.97l-4.19,5.31c-0.01,0.01-0.02,0.01-0.03,0.02l-0.14,4.93
				c-0.04,1.47-1.1,2.63-2.47,2.93c-0.27,0.06-0.47,0.26-0.48,0.53l-0.26,7.94L311.36,117.59z"/>
			<g>
				<path class="st6" d="M185.18,251.12l-6.4-4.57c-0.23-0.16-0.28-0.46-0.16-0.72c0.6-1.33,0.22-2.93-1.01-3.82l-2.21-1.59
					c-0.48-0.35-0.75-0.92-0.69-1.51l0.4-4.48c0.08-0.88-0.57-1.66-1.46-1.74c-0.88-0.08-1.66,0.57-1.74,1.46l-0.27,4.5
					c-0.03,0.6-0.9-0.22-1.61-0.76l-6.91-6.31c-0.59-0.54-1.51-0.49-2.05,0.1c-0.55,0.62-0.5,1.52,0.08,2.06l6.55,5.99l-0.36,0.5
					l-8.12-6.28c-0.6-0.47-1.53-0.27-2.07,0.43c-0.42,0.65-0.48,1.66,0.12,2.13l8.18,6.33l-0.17,0.23l-7.98-5.02
					c-0.75-0.47-1.75-0.24-2.21,0.5c-0.47,0.75-0.25,1.74,0.5,2.21l8.37,5.26c0,0.14-0.03,0.27-0.01,0.41l-4.36,0.07
					c-0.79,0.01-1.46,0.68-1.49,1.48c-0.03,0.81,0.59,1.45,1.38,1.44l6.76-0.11c0.01,0,0.02-0.01,0.03-0.01l4,2.88
					c1.19,0.86,2.76,0.73,3.83-0.18c0.21-0.18,0.49-0.22,0.71-0.06l6.46,4.62L185.18,251.12z"/>
				<g>
					<g>
						<path class="st6" d="M336.88,380.56c0,0-3.61,114.35,9.32,151.68c0.71,2.04-1.99,7,1.29,8.14l19.97,0.77l-5.54-2.31
							c-2.33-2.16-3.75-5.53-3.87-9.17c-0.89-26.41-4.3-135.35-0.85-149.11H336.88z"/>
						<path class="st7" d="M367.93,539.74c-2.35-1.84-5.38-2.86-8.53-2.88l-13.94-0.08c-0.58,0-1.05,0.5-1.05,1.12l-0.02,5.27
							c0,0.62,0.47,1.13,1.04,1.13l19.94,0.1l0.35,0c0.98,0,3.98,0.02,6.14,0.03C373.27,544.44,370.67,541.88,367.93,539.74z"/>
					</g>
					<g>
						<g>
							<path class="st6" d="M219.98,540.91c0.01,0.3-0.4,0.38-0.53,0.11l-10.32-21.82l1.66-1.19c0.82-0.59,1.43-1.42,1.74-2.38
								c3.26-10.21,22.72-70.29,33.2-80.33c1.02-0.97,1.55-2.34,1.59-3.75l1.59-50.98h27.55v44.16c0,3.1-0.25,6.21-0.93,9.24
								c-0.54,2.4-1.37,4.92-2.63,6.49c0,0-48.7,76.65-51.21,78.74C219.57,520.97,219.85,536.28,219.98,540.91z"/>
							<path class="st7" d="M223.78,544.43h-12.15c-0.64,0-1.23-0.4-1.51-1.03l-9.32-21.11c-0.38-0.85-0.02-1.87,0.79-2.24
								l6.03-2.72c0.75-0.34,2.81-0.92,3.16-0.13l7.19,19.51c0.84,1.87,2.14,3.46,3.74,4.6c0,0,8.25,3.12,4.39,3.12
								S223.78,544.43,223.78,544.43z"/>
						</g>
						<g>
							<g>
								<g>
									<path class="st8" d="M227.68,146.32c-4.94,8.39-18.62,31.03-10.82,39.31c3.3,2.36-0.27,7.41-3.6,5.07
										c-7.42-6.88-2.69-17.93,1.04-25.28c3.69-6.97,8.17-13.33,13.06-19.34C227.51,145.9,227.82,146.1,227.68,146.32
										L227.68,146.32z"/>
									<polygon class="st9" points="227.03,145.94 256.87,145.94 284.9,136.06 285.67,153.96 248.88,157 243.05,199.97 
										231.11,199.97 235.19,156.62 									"/>
								</g>
								<g>
									<path class="st7" d="M253.39,213.28c-5.29-2.84-9.44-7.42-11.65-13.01c-2.55-6.43-4.87-15.81-3.57-27.05
										c0,0,0.31-12.25,6.28-17.28c0,0,7.85-9.74,22.93-8.17c0,0,9.85-0.21,18.28,6.19c4.06,3.08,8.81,5.09,13.89,5.51
										c7.23,0.59,17.54,3.49,24,14.26c2.68,4.48,6.87,7.77,11.75,9.61c3.45,1.29,7.39,3.61,10.59,7.74
										c3.25,4.2,4.73,9.52,4.73,14.83v8.54c0,3.35-0.61,6.69-1.94,9.77c-2.21,5.16-6.67,12.6-15.03,17.16
										c0,0-12.37,10.89-26.55,1.04c-0.95-0.66-1.92-1.32-2.93-1.86L253.39,213.28z"/>
									<g>
										<g>
											
												<ellipse transform="matrix(0.9787 -0.2052 0.2052 0.9787 -30.5003 57.9122)" class="st6" cx="264" cy="176.03" rx="15.22" ry="19.02"/>
											
												<ellipse transform="matrix(0.954 -0.2998 0.2998 0.954 -42.7072 83.5327)" class="st6" cx="250.91" cy="180.97" rx="3.93" ry="5.03"/>
											
												<ellipse transform="matrix(0.9947 -0.103 0.103 0.9947 -16.3136 29.6575)" class="st6" cx="279.13" cy="172.86" rx="3.93" ry="5.03"/>
										</g>
										<rect x="261.8" y="188.04" class="st6" width="11.31" height="23.87"/>
									</g>
								</g>
							</g>
							<g>
								<path class="st9" d="M181.51,244.98l30.16,18.22c3.08,0.82,9-14.62,26.33-44.75c1.99-3.46,5.48-5.82,9.43-6.36l23.22-3.18
									c3.64-0.5,6.87-2.58,8.84-5.68l21.25-33.57c1.34-2.12,2.19-4.51,2.49-6.99l6.09-50.88h11.68v55.04
									c0,1.84-0.33,3.65-0.98,5.37c-2.99,7.89-12.25,31.74-19.52,44.36c-1.99,3.46-2.13,7.64-0.39,11.24
									c12.48,25.76,60.13,128.19,66.13,201.26L223.6,432.2c0,0,32.89-134.65,22.21-186.17c0,0-13.3,21.35-22.23,31.35
									c-3.97,4.45-10.68,5.11-15.45,1.54l-33.54-23.25L181.51,244.98z"/>
								<g>
									<path class="st10" d="M258.7,210.54c0,0,14.79-2.13,17.77-4.05l0.27,30.95L258.7,210.54z"/>
									<polyline class="st8" points="258.7,210.54 258.7,210.54 259.89,210.38 272.91,351.29 237.85,350.14 258.7,210.54 
																			"/>
									<path class="st8" d="M276.47,206.49c0,0,40.53,70.87,65.97,63.64c0,0,0.94,19.79-16.02,35.5
										C324.4,305.56,276.47,265.31,276.47,206.49z"/>
								</g>
							</g>
						</g>
					</g>
				</g>
			</g>
		</g>
	</g>
	<g>
		<text transform="matrix(0.9426 -0.3339 0.3339 0.9426 93.9483 193.1955)" class="st11 st12 st13">B</text>
		<text transform="matrix(0.9903 0.139 -0.139 0.9903 140.6478 434.9833)" class="st14 st12 st15">B</text>
		<text transform="matrix(0.8714 -0.4476 0.4569 0.8895 85.2961 493.7389)" class="st11 st12 st16">A</text>
		<text transform="matrix(0.9351 0.2132 -0.2223 0.975 462.8397 148.2723)" class="st17 st12 st18">A</text>
		<text transform="matrix(0.9126 0.4089 -0.4089 0.9126 39.0654 253.0495)" class="st19 st12 st20">C</text>
		<text transform="matrix(0.975 0.2223 -0.2223 0.975 435.8199 416.5585)" class="st19 st12 st21">C</text>
		<text transform="matrix(1.4029 -0.3839 0.264 0.9645 446.4122 291.8143)" class="st22 st12 st23">!</text>
		<text transform="matrix(0.9511 0.3088 -0.3088 0.9511 115.5391 335.2667)" class="st22 st12 st24">?</text>
	</g>
</g>
</svg>
