<?xml version="1.0" encoding="utf-8"?>
<!-- Generator: Adobe Illustrator 27.0.0, SVG Export Plug-In . SVG Version: 6.00 Build 0)  -->
<svg version="1.1" id="Layer_1" xmlns="http://www.w3.org/2000/svg" xmlns:xlink="http://www.w3.org/1999/xlink" x="0px" y="0px"
	 viewBox="0 0 80.27 50.02" style="enable-background:new 0 0 80.27 50.02;" xml:space="preserve">
<style type="text/css">
	.st0{fill:#FFE6D1;}
</style>
<path class="st0" d="M63.13,13.22c-0.14,0-0.27,0.02-0.41,0.02C61.07,5.95,54.57,0.5,46.79,0.5c-4.77,0-9.06,2.06-12.04,5.33
	c-1.93-0.79-4.04-1.24-6.25-1.24c-7.14,0-13.19,4.59-15.42,10.97C6.02,17.37,0.81,23.75,0.81,31.37c0,9.03,7.31,16.34,16.34,16.34
	c3.08,0,5.95-0.87,8.41-2.35c3.38,2.59,7.84,4.17,12.73,4.17c6.31,0,11.91-2.63,15.39-6.66c2.68,1.9,5.93,3.03,9.46,3.03
	c9.03,0,16.34-7.31,16.34-16.34S72.15,13.21,63.13,13.22L63.13,13.22z"/>
</svg>
