<?xml version="1.0" encoding="UTF-8"?>
<svg id="Layer_1" xmlns="http://www.w3.org/2000/svg" version="1.1" viewBox="0 0 80.27 50.02">
  <!-- Generator: Adobe Illustrator 29.5.1, SVG Export Plug-In . SVG Version: 2.1.0 Build 141)  -->
  <defs>
    <style>
      .st0 {
        fill: #e1e6e2;
      }
    </style>
  </defs>
  <path class="st0" d="M63.13,13.22c-.14,0-.27.02-.41.02-1.65-7.28-8.14-12.73-15.93-12.73-4.77,0-9.06,2.06-12.04,5.33-1.93-.79-4.04-1.24-6.25-1.24-7.14,0-13.19,4.59-15.42,10.97C6.02,17.37.81,23.75.81,31.37c0,9.03,7.31,16.34,16.34,16.34,3.08,0,5.95-.87,8.41-2.35,3.38,2.59,7.84,4.17,12.73,4.17,6.31,0,11.91-2.63,15.39-6.66,2.68,1.9,5.93,3.03,9.46,3.03,9.03,0,16.34-7.31,16.34-16.34s-7.31-16.34-16.34-16.34h0Z"/>
</svg>