<?xml version="1.0" encoding="utf-8"?>
<!-- Generator: Adobe Illustrator 27.0.0, SVG Export Plug-In . SVG Version: 6.00 Build 0)  -->
<svg version="1.1" id="Layer_1" xmlns="http://www.w3.org/2000/svg" xmlns:xlink="http://www.w3.org/1999/xlink" x="0px" y="0px"
	 viewBox="0 0 283.46 283.46" style="enable-background:new 0 0 283.46 283.46;" xml:space="preserve">
<style type="text/css">
	.st0{fill:none;stroke:#000000;stroke-width:3.922;stroke-miterlimit:10;}
	.st1{fill:none;stroke:#000000;stroke-width:3.2723;stroke-miterlimit:10;}
</style>
<g>
	<g>
		<g>
			<g>
				<path d="M102.35,28.01c-0.06,0.09-0.46,0.47-1.05,1.26c-0.42,0.56-0.62,0.95-0.67,1.12c-0.13,0.33-0.24,0.64-0.34,0.92
					c-0.12,0.39-0.16,0.67-0.16,0.8c0.01,0.14-0.11,0.47-0.31,1c-0.19,0.52-0.35,1.33-0.33,2.51c0.01,1.18,0.17,1.83,0.31,1.83
					c0.23-0.01,0.58-0.43,1.1-1.23c0.24-0.4,0.57-0.8,0.99-1.17c0.28-0.25,0.54-0.51,0.73-0.78c0.2-0.26,0.66-0.92,1.45-1.95
					c0.61-0.79,1.13-1.36,1.52-1.68c0.36-0.3,0.76-0.68,1.16-1.14c0.39-0.46,0.65-0.73,0.79-0.82c0.3-0.18,0.64-0.57,1.03-1.14
					c0.27-0.39,0.48-0.65,0.6-0.78c0.12-0.13,0.4-0.37,0.84-0.72c0.52-0.42,0.83-0.64,0.94-0.64c0.1,0,0.12,0.18,0.08,0.56
					c-0.04,0.35-0.09,0.63-0.18,0.82c-0.09,0.19-0.29,0.53-0.59,1.01c-0.62,0.94-1.38,1.98-2.3,3.11c-0.58,0.73-0.98,1.31-1.18,1.71
					c-0.33,0.64-0.62,1.07-0.91,1.25c-0.13,0.09-0.4,0.39-0.79,0.92c-0.39,0.53-0.7,1.01-0.94,1.43c-0.24,0.42-0.58,0.89-1.01,1.35
					c-0.41,0.43-0.76,0.88-1,1.35c-0.56,1.02-0.89,1.67-1.04,1.95c-0.16,0.28-0.33,0.5-0.51,0.67c-0.38,0.33-0.7,0.95-0.88,1.87
					c-0.19,0.92-0.32,2.46-0.13,4.51c0.2,2.14,0.52,3.36,0.62,3.76c0.16,0.64,0.24,0.95,0.43,1.57c0.22,0.72,0.47,1.48,0.75,2.26
					c0.2,0.56,0.37,0.93,0.46,1.12c0.09,0.19,0.24,0.44,0.44,0.76c0.28,0.44,0.64,1.07,1.12,1.88s0.79,1.31,0.89,1.54
					c0.24,0.52,0.17,0.6-0.25,0.29c-0.42-0.31-0.96-0.83-1.56-1.59c-0.62-0.8-2.44-3-3.88-7.34c-1.44-4.34-1.24-7.63-1.05-9.18
					c0.08-0.65,0.11-1.21,0.08-1.66c-0.04-0.45-0.16-0.87-0.34-1.26c-0.18-0.38-0.37-1.16-0.45-2.21c-0.08-1.05,0.01-1.93,0.17-2.67
					c0.15-0.66,0.26-1.08,0.28-1.24c0.01-0.16,0.09-0.42,0.23-0.73c0.14-0.31,0.22-0.52,0.25-0.62c0.04-0.15,0.17-0.43,0.38-0.77
					c0.22-0.36,0.35-0.58,0.37-0.66c0.02-0.09,0.12-0.22,0.28-0.39c0.16-0.17,0.45-0.46,0.91-0.86c0.52-0.45,0.91-0.75,1.15-0.93
					c0.24-0.18,0.54-0.39,0.9-0.62C102.22,28.03,102.42,27.92,102.35,28.01z"/>
				<path d="M122,23.72c0.4-0.4,0.7-0.62,0.84-0.63c0.06-0.01,0.12,0.05,0.14,0.15c0.02,0.1,0.05,0.37,0.1,0.83
					c0.06,0.52,0.16,0.89,0.28,1.01c0.18,0.17,0.32,0.44,0.38,0.8c0.05,0.36,0.05,0.94,0.02,1.74c-0.04,1.07-0.02,1.87-0.02,2.33
					c0.01,0.71,0.03,1.64,0.08,2.8c0.05,1.2,0.16,2.05,0.23,2.49c0.09,0.49,0.09,1.24,0.03,2.24c-0.05,0.91-0.07,1.89-0.06,2.96
					c0.01,0.91,0.01,1.65-0.04,2.18c-0.04,0.54-0.07,1.11-0.05,1.68c0.02,0.62,0.01,1.68-0.03,3.14c-0.04,1.46-0.06,2.46-0.12,3.05
					c-0.03,0.42-0.02,0.85,0.03,1.3c0.13,1.19,0.12,2.31-0.06,3.35c-0.1,0.62-0.15,1.16-0.16,1.59c-0.01,0.44-0.15,0.91-0.36,1.39
					c-0.18,0.42-0.34,0.92-0.48,1.48c-0.14,0.56-0.17,0.98-0.15,1.23c0.02,0.21-0.04,0.57-0.17,0.97c-0.1,0.32-0.23,0.73-0.31,1.16
					c-0.08,0.42-0.24,0.68-0.46,0.75c-0.23,0.08-0.47,0.32-0.68,0.62c-0.18,0.25-0.64,0.43-1.41,0.48
					c-0.77,0.05-1.27-0.02-1.48-0.17c-0.13-0.12-0.35-0.26-0.65-0.36c-0.28-0.1-0.75-0.37-1.33-0.87c-0.55-0.48-1.12-0.93-1.68-1.3
					c-0.48-0.31-0.79-0.56-0.94-0.71c-0.14-0.15-0.49-0.59-1.01-1.33c-0.6-0.86-1-1.42-1.19-1.61c-0.26-0.26-0.56-0.67-0.88-1.17
					c-0.33-0.5-0.56-0.91-0.7-1.23c-0.21-0.5-0.36-0.82-0.44-0.96c-0.12-0.19-0.29-0.59-0.51-1.17c-0.22-0.6-0.42-1.07-0.56-1.4
					c-0.16-0.37-0.28-0.71-0.34-0.98c-0.06-0.27-0.21-0.86-0.42-1.77c-0.19-0.8-0.35-1.79-0.41-2.93c-0.06-1.09-0.09-2.01-0.11-2.67
					c-0.02-0.56,0.07-1.35,0.27-2.32c0.19-0.93,0.36-1.75,0.49-2.48c0.12-0.68,0.25-1.15,0.38-1.42c0.37-0.76,0.69-1.65,0.97-2.65
					c0.28-1,0.83-2.13,1.66-3.36c0.83-1.24,1.81-2.37,2.89-3.42c0.23-0.2,0.66-0.62,1.32-1.24c0.39-0.35,0.76-0.69,1.12-0.98
					c0.42-0.34,1.01-0.79,1.66-1.34c0.59-0.5,0.94-0.79,1.07-0.86c0.13-0.07,0.27-0.04,0.39,0.01c0.18,0.07,0.43,0.02,0.59-0.06
					c0.16-0.08,0.38-0.16,0.63-0.21C120.84,23.73,121.6,24.11,122,23.72z M119.81,28.37c-0.21,0.09-0.52-0.14-0.59-0.07
					c-0.07,0.08-0.36,0.14-0.84,0.19c-0.49,0.06-0.88,0.22-1.16,0.5c-0.28,0.28-0.59,0.49-0.89,0.65c-0.35,0.18-0.61,0.38-0.77,0.54
					s-0.34,0.28-0.52,0.36c-0.18,0.08-0.4,0.32-0.65,0.71c-0.25,0.4-0.61,0.89-1.09,1.49c-0.97,1.28-1.6,2.36-1.93,3.2
					c-0.12,0.36-0.27,0.71-0.44,1.07c-0.52,1.03-0.83,1.95-0.95,2.74c-0.09,0.55-0.19,1.14-0.29,1.75
					c-0.51,2.63-0.47,4.55-0.19,5.63c0.17,0.74,0.28,1.28,0.32,1.61c0.05,0.48,0.3,1.48,0.81,2.96c0.51,1.48,0.97,2.46,1.25,2.97
					c0.24,0.45,0.53,0.95,0.87,1.43c0.34,0.49,0.53,0.73,0.57,0.73c0.09,0.01,0.31,0.25,0.68,0.73c0.37,0.48,0.66,0.72,0.89,0.73
					c0.21,0.01,0.46,0.16,0.76,0.45c0.29,0.29,0.54,0.44,0.73,0.44c0.19,0.01,0.43,0.1,0.72,0.27c0.51,0.35,1.01,0.42,1.54,0.21
					c0.53-0.21,0.94-0.64,1.23-1.28c0.36-0.78,0.56-1.21,0.61-1.22c0.18-0.03,0.33-0.51,0.47-1.46c0.15-0.95,0.24-2.05,0.29-3.32
					c0.05-0.76,0.11-1.44,0.19-2.02c0.19-1.02,0.32-1.78,0.35-2.26s0.04-1.26,0.04-2.35c0-4.17,0.14-6.91,0.04-8.25
					c-0.04-0.46-0.05-1.11,0-1.9c0.05-0.8,0.07-1.43-0.01-1.83c-0.06-0.31-0.11-0.68-0.1-1.06c0.01-0.34-0.04-0.69-0.12-1.02
					c-0.08-0.37-0.13-0.71-0.17-1.01c-0.04-0.32-0.11-0.57-0.17-0.72c-0.07-0.18-0.12-0.38-0.16-0.58
					c-0.04-0.23-0.12-0.39-0.21-0.46c-0.1-0.09-0.19-0.23-0.24-0.36c-0.06-0.18-0.15-0.25-0.3-0.18c-0.14,0.07-0.22,0.05-0.25-0.05
					C120.15,28.27,120.02,28.28,119.81,28.37z"/>
				<path d="M135.33,16.23c0.69-0.11,1.22-0.08,1.53,0.08c0.17,0.09,0.32,0.24,0.45,0.44c0.13,0.2,0.4,0.67,0.77,1.43
					c0.41,0.84,0.75,1.46,1,1.72c0.38,0.39,0.7,0.86,0.91,1.38c0.21,0.53,0.39,1.29,0.56,2.29c0.23,1.35,0.42,2.35,0.52,2.93
					c0.16,0.89,0.35,2.03,0.58,3.44c0.24,1.46,0.45,2.5,0.58,3.05c0.15,0.6,0.22,1.48,0.21,2.62c0,1.02,0.01,2.14,0.05,3.35
					c0.03,1.04,0.03,1.86-0.03,2.45c-0.06,0.59-0.09,1.22-0.08,1.86c0.01,0.7-0.04,1.88-0.17,3.47c-0.13,1.6-0.25,2.69-0.37,3.31
					c-0.07,0.45-0.1,0.93-0.09,1.44c0.02,1.35-0.15,2.56-0.48,3.64c-0.2,0.65-0.33,1.22-0.41,1.68c-0.08,0.47-0.31,0.95-0.61,1.4
					c-0.26,0.4-0.51,0.9-0.75,1.47c-0.24,0.57-0.35,1.01-0.38,1.3c-0.02,0.24-0.15,0.6-0.36,1.01c-0.16,0.32-0.37,0.73-0.54,1.17
					c-0.16,0.44-0.37,0.67-0.6,0.69c-0.24,0.03-0.52,0.22-0.77,0.49c-0.22,0.23-0.69,0.29-1.4,0.16c-0.71-0.14-1.13-0.33-1.29-0.55
					c-0.09-0.16-0.27-0.36-0.52-0.54c-0.22-0.17-0.6-0.57-1.04-1.23c-0.42-0.64-0.85-1.22-1.3-1.72c-0.38-0.42-0.63-0.73-0.73-0.92
					c-0.11-0.19-0.36-0.71-0.74-1.58c-0.44-1.01-0.75-1.62-0.89-1.76c-0.21-0.2-0.44-0.56-0.7-1.03c-0.26-0.46-0.44-0.85-0.55-1.17
					c-0.16-0.5-0.28-0.82-0.34-0.95c-0.1-0.17-0.23-0.57-0.4-1.17c-0.17-0.6-0.34-1.08-0.46-1.4c-0.14-0.36-0.24-0.71-0.29-1
					c-0.05-0.29-0.17-0.91-0.36-1.85c-0.17-0.84-0.32-1.89-0.4-3.13c-0.08-1.19-0.15-2.18-0.2-2.88c-0.04-0.6-0.01-1.48,0.1-2.59
					c0.1-1.05,0.18-1.99,0.22-2.79c0.04-0.76,0.1-1.29,0.18-1.61c0.24-0.92,0.41-1.94,0.51-3.05c0.11-1.11,0.41-2.43,0.91-3.93
					c0.5-1.5,1.11-2.93,1.81-4.28c0.15-0.27,0.43-0.79,0.85-1.58c0.25-0.45,0.49-0.88,0.72-1.26c0.27-0.45,0.66-1.06,1.07-1.79
					c0.37-0.66,0.6-1.06,0.69-1.17c0.09-0.11,0.23-0.12,0.35-0.12c0.18,0.01,0.4-0.12,0.52-0.26c0.12-0.14,0.3-0.29,0.51-0.43
					C134.1,16.52,134.65,16.34,135.33,16.23z M134.54,21.74c-0.35-0.06-0.53-0.02-0.58,0.07c-0.05,0.1-0.3,0.24-0.73,0.42
					c-0.45,0.18-0.76,0.45-0.95,0.81c-0.19,0.36-0.43,0.65-0.66,0.89c-0.27,0.27-0.46,0.53-0.58,0.74
					c-0.11,0.21-0.24,0.37-0.38,0.49c-0.14,0.12-0.28,0.41-0.42,0.88c-0.14,0.47-0.37,1.05-0.68,1.77
					c-0.62,1.52-1.01,2.75-1.18,3.69c-0.06,0.4-0.14,0.79-0.24,1.22c-0.32,1.23-0.5,2.29-0.53,3.15c-0.02,0.61-0.06,1.26-0.1,1.94
					c-0.23,2.95-0.14,5.03,0.14,6.11c0.17,0.74,0.27,1.3,0.31,1.65c0.05,0.51,0.28,1.54,0.7,3.17c0.42,1.64,0.79,2.75,1.01,3.33
					c0.19,0.51,0.42,1.08,0.69,1.65c0.27,0.57,0.42,0.85,0.45,0.86c0.08,0.02,0.26,0.31,0.55,0.88c0.29,0.57,0.53,0.88,0.73,0.92
					c0.19,0.04,0.4,0.24,0.63,0.6c0.24,0.37,0.44,0.56,0.61,0.6c0.17,0.03,0.38,0.17,0.62,0.41c0.42,0.47,0.89,0.67,1.43,0.58
					c0.54-0.09,1.01-0.44,1.39-1.06c0.46-0.76,0.73-1.17,0.78-1.16c0.19,0.02,0.4-0.46,0.67-1.46c0.27-1,0.49-2.19,0.67-3.57
					c0.12-0.83,0.25-1.56,0.38-2.18c0.28-1.07,0.47-1.87,0.53-2.39c0.07-0.52,0.11-1.39,0.14-2.61c0.1-4.68,0.05-7.81-0.19-9.44
					c-0.09-0.56-0.16-1.32-0.19-2.25c-0.03-0.93-0.1-1.69-0.26-2.21c-0.13-0.42-0.25-0.89-0.32-1.36c-0.06-0.42-0.18-0.87-0.36-1.34
					c-0.2-0.51-0.35-0.98-0.48-1.38c-0.15-0.45-0.31-0.8-0.45-1.04c-0.16-0.28-0.3-0.59-0.42-0.87c-0.14-0.33-0.31-0.59-0.49-0.77
					c-0.2-0.21-0.39-0.45-0.53-0.67c-0.18-0.3-0.37-0.48-0.59-0.5c-0.22-0.02-0.37-0.12-0.47-0.29
					C135.11,21.89,134.88,21.8,134.54,21.74z"/>
				<path d="M145.55,15.8c0.23,0.35,0.54,1.28,0.96,2.86c0.29,1.11,0.52,1.85,0.68,2.21c0.25,0.65,0.47,1.24,0.63,1.74
					c0.26,0.72,0.46,1.21,0.61,1.47c0.14,0.26,0.28,0.81,0.43,1.63c0.15,0.83,0.55,2.13,1.17,3.91c0.62,1.79,1.01,2.7,1.16,2.71
					c0.26,0.01,0.52-0.52,0.76-1.55c0.1-0.52,0.3-1.02,0.58-1.44c0.2-0.29,0.35-0.59,0.44-0.92c0.08-0.32,0.27-1.13,0.53-2.37
					c0.2-0.95,0.39-1.6,0.6-1.92c0.19-0.29,0.38-0.71,0.47-1.22c0.09-0.52,0.17-0.81,0.25-0.88c0.19-0.13,0.26-0.56,0.21-1.25
					c-0.03-0.47-0.04-0.78-0.02-0.92c0.02-0.14,0.12-0.38,0.27-0.68c0.18-0.37,0.31-0.54,0.42-0.48c0.11,0.06,0.31,0.37,0.6,0.95
					c0.27,0.53,0.44,0.91,0.5,1.15c0.06,0.24,0.13,0.63,0.18,1.18c0.07,1.05-0.01,2.16-0.25,3.37c-0.16,0.78-0.25,1.43-0.25,1.89
					c0,0.75-0.1,1.22-0.31,1.39c-0.09,0.08-0.21,0.42-0.38,1.01c-0.17,0.6-0.3,1.15-0.39,1.65c-0.09,0.5-0.27,1.04-0.57,1.57
					c-0.28,0.5-0.51,1.04-0.65,1.62c-0.32,1.26-0.55,2.09-0.67,2.45c-0.12,0.35-0.26,0.64-0.43,0.86c-0.36,0.44-0.6,1.25-0.74,2.47
					c-0.14,1.21-0.22,3.23-0.3,5.93c-0.08,2.82-0.15,4.44-0.17,4.98c-0.03,0.85-0.05,1.27-0.09,2.1c-0.04,0.96-0.12,1.99-0.23,3.08
					c-0.08,0.78-0.12,1.29-0.13,1.55c-0.01,0.25,0,0.58,0.04,0.97c0.05,0.53,0.05,1.38-0.04,2.49c-0.09,1.11-0.2,1.85-0.33,2.24
					c-0.27,0.89-0.59,1.28-0.96,1.17c-0.37-0.1-0.58-0.66-0.62-1.71c-0.04-1.09,0.08-4.3,0.17-10.41c0.09-6.1,0.12-10.61,0.21-12.78
					c0.04-0.91-0.01-1.68-0.13-2.3c-0.12-0.62-0.36-1.22-0.67-1.78c-0.31-0.56-0.74-1.68-1.29-3.32c-0.55-1.64-0.96-3.09-1.25-4.31
					c-0.27-1.12-0.48-1.85-0.61-2.16c-0.13-0.31-0.27-0.77-0.39-1.33c-0.12-0.57-0.25-0.96-0.33-1.16
					c-0.11-0.29-0.26-0.83-0.43-1.52c-0.17-0.69-0.33-1.17-0.47-1.42c-0.14-0.24-0.23-0.54-0.27-0.88c-0.04-0.34-0.06-0.9-0.06-1.65
					c0-0.85,0.05-1.4,0.13-1.67s0.27-0.53,0.55-0.74C145.01,15.4,145.33,15.45,145.55,15.8z"/>
				<path d="M159.74,19.13c0.24,0.16,0.48,0.37,0.71,0.65c0.11,0.17,0.32,0.3,0.59,0.41c0.26,0.1,0.53,0.32,0.82,0.65
					c0.3,0.34,0.7,0.66,1.09,0.97c0.1,0.08,0.22,0.19,0.36,0.32c0.14,0.12,0.25,0.22,0.33,0.3c0.08,0.08,0.14,0.13,0.17,0.16
					c0.13,0.12,0.21,0.16,0.25,0.13c0.12-0.06,0.27,0.77,1.07,1.31c0.81,0.54,1.35,1.22,1.59,2c0.25,0.78,0.13,1.56-0.04,1.63
					c-0.17,0.07-0.6-0.16-1.29-0.7c-0.44-0.34-0.77-0.62-0.94-0.7c-0.08-0.04-0.77-0.46-2.09-1.22c-0.1-0.06-0.25-0.15-0.45-0.26
					c-0.81-0.46-1.29-0.65-1.41-0.6c-0.12,0.05-0.13,0.46-0.01,1.23c0.03,0.17,0.05,0.31,0.06,0.39c0.12,0.9,0.2,1.58,0.19,1.95
					c0,0.28,0.04,0.64,0.13,1.02c0.17,0.7,0.35,2.41,0.4,5.28c0.02,0.72,0.09,1.23,0.23,1.53c0.14,0.3,0.44,0.62,0.88,0.87
					c0.5,0.28,0.87,0.38,0.94,0.31c0.08-0.08,0.21-0.13,0.37-0.06c0.18,0.08,0.31,0.01,0.39-0.12c0.06-0.1,0.22-0.12,0.41-0.04
					c0.19,0.08,0.35,0.26,0.47,0.48c0.14,0.25,0.34,0.35,0.5,0.28c0.18-0.08,0.41,0.05,0.67,0.36c0.2,0.23,0.5,0.44,0.84,0.6
					c0.34,0.17,0.59,0.22,0.73,0.15c0.13-0.07,0.28,0.01,0.47,0.27c0.45,0.69,0.83,0.76,1.11,0.29c0.23-0.37,0.6-0.3,1.07,0.21
					c0.48,0.51,0.81,1.21,0.98,2.11s0.13,1.79-0.16,2.59c-0.23,0.62-0.46,1.02-0.6,1.14c-0.15,0.12-0.34,0.08-0.54-0.18
					c-0.43-0.53-0.86-0.68-1.23-0.43c-0.22,0.15-0.46,0.19-0.66,0.06c-0.43-0.27-0.68-0.51-0.75-0.56c-0.19-0.15-0.54-0.2-0.79-0.13
					c-0.21,0.06-0.72-0.03-1.51-0.32c-0.79-0.29-1.3-0.57-1.52-0.79c-0.16-0.17-0.37-0.25-0.54-0.2c-0.21,0.05-0.49,0.14-0.78,0.17
					c-0.35,0.03-0.58,0.23-0.66,0.62c-0.08,0.39-0.14,1.71-0.3,3.83c-0.1,1.21-0.17,1.95-0.18,2.23c-0.01,0.28,0,0.77,0.04,1.44
					c0.05,0.78,0.05,1.6,0,2.44c-0.1,1.57-0.05,2.65,0.17,3.29c0.22,0.63,0.77,1.15,1.62,1.54c0.73,0.34,1.19,0.44,1.37,0.3
					c0.18-0.14,0.39-0.12,0.6,0.08c0.4,0.36,0.73,0.44,0.95,0.21c0.17-0.18,0.48-0.26,0.92-0.22c0.44,0.04,0.73,0.16,0.85,0.36
					c0.13,0.24,0.41,0.54,0.79,0.86c0.4,0.35,0.63,0.83,0.65,1.43c0.02,0.6-0.18,1.3-0.61,2.08c-0.29,0.51-0.54,0.8-0.73,0.88
					c-0.19,0.09-0.68,0.15-1.26,0.04c-0.2-0.04-0.5-0.12-0.87-0.17c-0.37-0.05-0.6-0.08-0.67-0.1c-0.36-0.08-0.83-0.14-1.35-0.11
					c-0.52,0.03-0.83,0.06-0.93,0.13c-0.18,0.18-0.61,0.17-1.28-0.05c-0.67-0.22-1.04-0.47-1.13-0.72
					c-0.09-0.25-0.26-0.46-0.47-0.62c-0.18-0.14-0.37-0.47-0.56-0.98c-0.2-0.5-0.31-0.96-0.34-1.34c0-0.09-0.01-0.28-0.05-0.58
					c-0.04-0.3-0.06-0.52-0.06-0.66c-0.05-0.31-0.08-0.55-0.07-0.74c0.01-0.19,0.05-0.51,0.12-0.96c0.11-0.68,0.16-1.31,0.13-1.85
					c-0.03-0.55-0.02-1.22,0.04-2c0.25-4.17,0.28-7.2,0.35-8.75c0.02-0.51,0.05-1.23,0.06-2.12c0.02-1.41,0.03-3.56-0.06-6.33
					c-0.01-0.2-0.02-0.68-0.05-1.42c-0.03-0.75-0.06-1.28-0.08-1.63c-0.07-1.17-0.13-2.43-0.21-3.72c-0.05-0.92-0.14-2.17-0.29-3.66
					c-0.13-1.27-0.2-2.06-0.21-2.36c-0.01-0.31-0.09-0.73-0.2-1.2c-0.22-0.83-0.23-1.58-0.08-2.22c0.16-0.64,0.4-0.81,0.74-0.65
					c0.15,0.07,0.28,0.01,0.34-0.14C159.35,18.97,159.49,18.98,159.74,19.13z"/>
				<path d="M171.83,23.47c0.35,0.19,0.58,0.28,0.69,0.29c0.16,0.01,0.48,0.22,0.95,0.64c0.47,0.42,0.8,0.8,1,1.12
					c0.47,0.79,0.71,1.43,0.73,1.89c0.02,0.46-0.18,0.69-0.59,0.68c-0.37-0.01-0.54,0.11-0.51,0.36c0.03,0.25,0.28,0.88,0.7,1.9
					c1.44,3.58,1.85,5.94,1.89,6.47c0.03,0.4,0.16,1.19,0.38,2.37c0.21,1.18,0.37,2.09,0.51,2.7c0.27,1.13,0.46,2.91,0.34,5.29
					c-0.04,0.83-0.05,1.59-0.05,2.24c0.01,0.7-0.08,1.43-0.23,2.14c-0.26,1.28-0.55,2.79-0.93,4.48c-0.38,1.7-0.63,2.6-0.6,2.8
					c0.03,0.2,0.3,0.31,0.78,0.28c1.59-0.1,2.09,0.74,1.32,2.53c-0.42,0.98-1.1,1.69-2,2.16c-0.9,0.47-2.29,0.79-4.2,0.82
					c-0.79,0.01-1.27-0.11-1.39-0.35c-0.12-0.24-0.04-0.8,0.23-1.67c0.31-1,0.58-1.67,0.8-1.97c0.23-0.29,0.6-0.47,1.11-0.54
					c0.02,0,0.04,0,0.08,0c0.44-0.06,0.76-0.3,0.93-0.71c0.18-0.41,0.63-1.8,1.05-4.34c0.04-0.27,0.08-0.48,0.1-0.62
					c0.47-3.16,0.5-5.09,0.51-5.52c0.04-1.58,0.01-3.45-0.1-5.43c-0.26-4.63-0.93-6.99-1.11-7.43c-0.15-0.35-0.38-1.38-0.81-2.98
					c-0.45-1.69-0.88-2.82-1.16-3.46c-0.24-0.56-0.41-0.89-0.5-0.96c-0.09-0.08-0.44-0.23-1.01-0.39c-0.39-0.11-0.7-0.25-0.92-0.44
					c-0.21-0.19-0.48-0.53-0.79-1.02c-0.59-0.9-0.92-1.59-0.98-2.09c-0.06-0.5,0.15-0.76,0.66-0.78c0.4-0.02,0.61-0.09,0.62-0.23
					c0.01-0.14,0.23-0.22,0.7-0.21c0.47,0,0.74-0.09,0.81-0.19C170.98,23.17,171.36,23.22,171.83,23.47z"/>
				<path d="M186.15,27.98c0.04,0.02,0.23,0.15,0.57,0.37c0.74,0.49,2.05,1.37,3.51,2.97c0.48,0.52,0.88,1.02,1.24,1.45
					c0.32,0.38,0.62,0.81,0.88,1.29s0.52,0.93,0.79,1.32c0.27,0.39,0.59,0.99,0.89,1.79c0.34,0.91,0.59,1.73,0.78,2.38
					c0.15,0.52,0.4,1.48,0.5,2.93c0.1,1.45,0,2.31-0.04,2.5c-0.05,0.23-0.08,0.91-0.24,1.99c-0.47,3.14-1.62,5.09-2.3,6.18
					c-0.53,0.84-0.93,1.41-1.14,1.7c-0.66,0.95-1.6,1.92-2.76,3.01c-1.16,1.09-1.71,1.57-1.65,1.39c0.01-0.05,0.06-0.18,0.14-0.4
					c0.08-0.22,0.13-0.38,0.18-0.44s0.39-0.59,0.73-1.83c0.11-0.38,0.21-0.72,0.3-0.99c0.11-0.3,0.18-0.61,0.21-0.94
					c0.05-0.71,0.14-1.49,0.26-2.33c0.09-0.5,0.13-0.9,0.06-1.08c-0.05-0.12-0.08-0.53-0.03-1.19c0.05-0.67,0.02-1.14-0.05-1.42
					c-0.07-0.28-0.12-0.7-0.17-1.27c-0.05-0.57-0.14-1.12-0.28-1.66c-0.13-0.54-0.21-0.95-0.22-1.21c-0.01-0.22-0.08-0.6-0.23-1.14
					c-0.16-0.54-0.31-1.18-0.49-1.91c-0.18-0.72-0.43-1.35-0.69-1.86c-0.26-0.51-0.46-0.94-0.56-1.27c-0.1-0.33-0.38-0.87-0.85-1.58
					c-0.44-0.66-0.8-1.24-1.06-1.7c-0.95-1.58-1.46-2.07-1.37-1.52c0.08,0.47,0.57,1.82,1.12,4.18c0.57,2.45,0.67,4.16,0.69,4.97
					c0.01,0.77,0.06,1.69,0.11,2.75c0.05,1.06,0.05,1.85,0.02,2.35c-0.01,0.09-0.02,0.32-0.06,0.69c-0.04,0.37-0.09,0.83-0.16,1.39
					s-0.15,1.07-0.23,1.5c-0.32,1.89-0.7,3.06-0.86,3.57c-0.14,0.42-0.44,1.47-1.04,3.03c-0.54,1.39-0.97,2.22-1.18,2.56
					c-0.21,0.34-0.49,0.65-0.84,0.9c-0.53,0.39-0.87,0.45-0.96,0.17c-0.05-0.12,0.07-0.52,0.33-1.22c0.26-0.7,0.76-1.96,1.32-3.91
					c0.71-2.46,0.95-4.29,1.04-5.33c0.09-1.04,0.16-2.03,0.27-2.91c0.1-0.84,0.18-1.84,0.17-2.99c-0.02-1.15-0.06-1.97-0.08-2.53
					c-0.01-0.51-0.07-0.99-0.18-1.45c-0.11-0.45-0.18-0.99-0.21-1.57c-0.03-0.62-0.17-1.4-0.43-2.27c-0.19-0.65-0.42-1.52-0.72-2.56
					c-0.3-1.04-0.54-1.75-0.64-2.16c-0.08-0.32-0.27-0.96-0.65-1.86c-0.39-0.95-0.63-1.58-0.7-1.9c-0.09-0.39-0.23-0.73-0.36-0.98
					c-0.14-0.28-0.22-0.66-0.23-1.07c-0.01-0.37,0.18-0.56,0.56-0.54c0.38,0.02,0.76,0.23,1.16,0.64c0.06,0.07,0.15,0.16,0.26,0.27
					s0.22,0.23,0.34,0.36c0.12,0.13,0.21,0.23,0.27,0.3c0.36,0.38,0.68,0.74,0.95,1.07c0.31,0.37,0.66,0.74,1.02,1.1
					c0.35,0.36,0.63,0.68,0.84,0.99c0.27,0.35,0.49,0.65,0.66,0.87c0.19,0.24,0.48,0.61,0.79,1.11c0.25,0.42,0.45,0.71,0.59,0.83
					c0.13,0.12,0.28,0.35,0.45,0.66c0.2,0.35,0.61,1,1.17,1.95c0.56,0.95,0.92,1.59,1.14,1.92c0.44,0.69,0.72,1.38,0.84,2.08
					c0.08,0.45,0.2,0.98,0.38,1.54c0.17,0.53,0.31,0.99,0.37,1.36c0.07,0.41,0.21,0.91,0.39,1.49c0.2,0.62,0.29,1.15,0.28,1.6
					c-0.01,0.98,0.05,1.86,0.21,2.59c0.11,0.4,0.14,0.93,0.08,1.58c-0.06,0.58-0.1,1.05-0.09,1.4c0.01,0.31-0.04,0.63-0.14,0.94
					c-0.09,0.26-0.13,0.51-0.14,0.71c-0.01,0.2,0.02,0.26,0.1,0.2c0.13-0.09,0.45-0.56,0.87-1.47c0.41-0.9,1.9-3.76,1.72-8.8
					c-0.05-1.4-0.22-2.48-0.34-3.25c-0.11-0.7-0.27-1.33-0.49-1.87c-0.24-0.58-0.52-1.33-0.83-2.18c-0.3-0.82-0.53-1.27-0.61-1.38
					c-0.08-0.11-0.42-0.85-1.22-2.1c-0.8-1.26-1.44-1.98-1.73-2.29c-0.26-0.28-0.63-0.72-1.13-1.27c-0.5-0.55-0.79-0.84-0.81-0.89
					c-0.02-0.05-0.12-0.16-0.25-0.29C186.14,28,186.1,27.96,186.15,27.98z"/>
			</g>
		</g>
		<path class="st0" d="M143.43,71.77c-4.58,0-9.11-0.81-13.26-2.37c-3.58,1.11-7.34,1.67-11.22,1.67
			c-17.81,0-32.31-12.15-32.31-27.09s14.49-27.09,32.31-27.09c0.27,0,0.54,0,0.81,0.01c6.08-5.5,14.53-8.6,23.67-8.6
			c9.04,0,17.66,3.19,23.72,8.67c0.78-0.05,1.57-0.07,2.36-0.07c17.81,0,32.31,12.15,32.31,27.09s-14.49,27.09-32.31,27.09
			c-4.14,0-8.27-0.67-12.09-1.95C153.08,70.86,148.3,71.77,143.43,71.77z"/>
	</g>
	<g>
		<polyline class="st1" points="258.04,278.77 144.23,72.58 30.42,278.77 		"/>
		<rect x="16.44" y="267.81" width="255.58" height="11.96"/>
	</g>
</g>
</svg>
