<?xml version="1.0" encoding="UTF-8"?>
<svg id="Layer_1" data-name="Layer 1" xmlns="http://www.w3.org/2000/svg" viewBox="0 0 411.48 232">
  <defs>
    <style>
      .cls-1 {
        fill: #f07d63;
      }

      .cls-2 {
        fill: none;
        stroke: #f07d63;
        stroke-miterlimit: 10;
        stroke-width: 11.63px;
      }
    </style>
  </defs>
  <g>
    <path class="cls-1" d="M60.34,74.28c-.22,.32-1.6,1.62-3.66,4.38-1.44,1.93-2.14,3.29-2.31,3.87-.45,1.14-.84,2.21-1.19,3.2-.42,1.36-.57,2.31-.54,2.79,.03,.48-.39,1.63-1.06,3.46-.67,1.81-1.2,4.61-1.15,8.7,.05,4.09,.6,6.36,1.09,6.34,.81-.05,2.03-1.48,3.82-4.28,.84-1.4,1.99-2.78,3.43-4.06,.99-.88,1.86-1.78,2.55-2.7,.68-.91,2.29-3.19,5.04-6.78,2.11-2.75,3.91-4.73,5.26-5.85,1.25-1.03,2.65-2.36,4.03-3.97,1.35-1.58,2.27-2.55,2.75-2.85,1.05-.62,2.22-1.99,3.57-3.95,.94-1.37,1.66-2.26,2.08-2.71,.41-.44,1.4-1.28,2.92-2.51,1.8-1.45,2.9-2.21,3.25-2.23,.35-.01,.42,.61,.28,1.93-.13,1.2-.31,2.18-.62,2.85-.31,.67-1.01,1.83-2.05,3.52-2.14,3.25-4.81,6.86-7.97,10.81-2.03,2.54-3.4,4.53-4.11,5.94-1.14,2.23-2.16,3.72-3.17,4.34-.45,.31-1.38,1.37-2.73,3.2-1.35,1.83-2.44,3.49-3.27,4.95-.83,1.47-2,3.09-3.5,4.67-1.42,1.5-2.63,3.05-3.49,4.68-1.95,3.55-3.08,5.81-3.62,6.77-.54,.96-1.13,1.74-1.76,2.31-1.33,1.16-2.42,3.31-3.06,6.5-.65,3.19-1.12,8.54-.45,15.67,.69,7.43,1.82,11.65,2.17,13.07,.54,2.21,.84,3.3,1.51,5.46,.77,2.49,1.62,5.13,2.6,7.86,.71,1.95,1.27,3.23,1.6,3.89,.33,.66,.83,1.54,1.54,2.62,.98,1.51,2.23,3.73,3.88,6.53,1.65,2.8,2.74,4.54,3.1,5.33,.84,1.79,.59,2.08-.87,1.02-1.47-1.07-3.35-2.88-5.41-5.53-5.88-7.57-10.42-16.32-13.46-25.48-3.38-10.16-4.92-21.2-3.63-31.86,.28-2.28,.39-4.2,.26-5.75-.12-1.55-.55-3.02-1.19-4.37-.63-1.32-1.28-4.02-1.57-7.68-.29-3.66,.03-6.71,.6-9.26,.52-2.3,.92-3.75,.96-4.32,.05-.56,.3-1.44,.8-2.54,.48-1.07,.76-1.82,.86-2.14,.15-.52,.6-1.48,1.33-2.69,.75-1.24,1.21-2.01,1.28-2.29,.08-.31,.42-.78,.97-1.37,.54-.59,1.57-1.61,3.17-3,1.79-1.56,3.16-2.61,4-3.22,.84-.62,1.87-1.34,3.11-2.17,1.58-1.06,2.26-1.46,2.04-1.13Z"/>
    <path class="cls-1" d="M128.57,59.36c1.39-1.38,2.42-2.15,2.9-2.19,.23-.02,.41,.17,.48,.52,.07,.35,.17,1.29,.35,2.87,.2,1.81,.56,3.1,.98,3.49,.64,.59,1.13,1.53,1.32,2.78,.19,1.26,.17,3.27,.07,6.03-.14,3.7-.08,6.49-.07,8.09,.05,2.48,.1,5.7,.27,9.71,.18,4.16,.55,7.12,.82,8.64,.29,1.69,.3,4.3,.12,7.79-.16,3.15-.24,6.57-.19,10.28,.04,3.17,.03,5.71-.13,7.58-.16,1.87-.24,3.86-.16,5.84,.08,2.15,.03,5.84-.1,10.89-.13,5.05-.22,8.54-.43,10.57-.09,1.46-.05,2.97,.12,4.51,.46,4.13,.4,8.01-.19,11.62-.36,2.17-.51,4.03-.55,5.53-.04,1.51-.52,3.17-1.25,4.82-.64,1.45-1.19,3.2-1.67,5.14-.48,1.95-.6,3.4-.53,4.29,.06,.75-.15,1.96-.58,3.37-.34,1.12-.81,2.53-1.09,4.03-.27,1.46-.83,2.35-1.58,2.62-.81,.29-1.65,1.11-2.36,2.14-.61,.88-2.22,1.48-4.88,1.67-2.67,.19-4.42-.06-5.15-.6-.44-.4-1.23-.89-2.27-1.26-.96-.33-2.61-1.29-4.61-3.03-1.93-1.68-3.88-3.23-5.83-4.5-1.68-1.1-2.76-1.94-3.25-2.47-.49-.53-1.7-2.06-3.5-4.63-2.09-3-3.47-4.92-4.12-5.58-.9-.91-1.93-2.31-3.07-4.06-1.14-1.74-1.94-3.16-2.42-4.26-.75-1.72-1.24-2.84-1.51-3.32-.43-.65-1.02-2.04-1.76-4.08-.75-2.06-1.46-3.71-1.96-4.85-.56-1.28-.98-2.47-1.19-3.42-.2-.93-.71-2.99-1.46-6.12-.66-2.79-1.2-6.21-1.41-10.18-.2-3.8-.3-7-.37-9.26-.06-1.93,.25-4.68,.94-8.05,.66-3.21,1.25-6.09,1.69-8.62,.41-2.37,.87-4,1.32-4.94,1.29-2.64,2.38-5.73,3.35-9.21,.97-3.47,2.88-7.38,5.78-11.68,2.9-4.29,6.28-8.24,10.03-11.86,.79-.7,2.3-2.16,4.58-4.32,1.35-1.22,2.65-2.4,3.88-3.4,1.47-1.19,3.5-2.75,5.77-4.64,2.06-1.72,3.28-2.73,3.72-2.97,.44-.24,.93-.12,1.34,.03,.63,.23,1.48,.07,2.05-.22,.57-.29,1.32-.56,2.18-.74,1.54-.32,4.2,1.01,5.59-.37Zm-7.61,16.16c-.73,.32-1.81-.47-2.03-.24-.25,.26-1.24,.48-2.9,.67-1.72,.2-3.07,.77-4.04,1.73-.97,.96-2.04,1.69-3.1,2.25-1.2,.63-2.11,1.31-2.68,1.87-.57,.56-1.18,.99-1.81,1.27-.63,.28-1.38,1.1-2.24,2.47-.86,1.38-2.13,3.09-3.79,5.16-3.35,4.44-5.55,8.18-6.71,11.12-.43,1.24-.94,2.48-1.53,3.73-1.8,3.59-2.88,6.76-3.31,9.49-.3,1.93-.65,3.96-1.02,6.07-1.76,9.13-1.64,15.79-.65,19.55,.59,2.56,.98,4.43,1.1,5.59,.18,1.66,1.04,5.14,2.81,10.26,1.77,5.13,3.39,8.55,4.35,10.32,.84,1.55,1.83,3.28,3.02,4.97,1.18,1.69,1.85,2.53,1.97,2.54,.31,.02,1.09,.88,2.35,2.53,1.27,1.66,2.31,2.5,3.1,2.54,.73,.04,1.61,.57,2.63,1.57,1.02,1.01,1.87,1.51,2.54,1.53,.67,.02,1.51,.34,2.51,.94,1.75,1.21,3.52,1.47,5.35,.73,1.83-.74,3.26-2.21,4.28-4.44,1.23-2.71,1.95-4.21,2.12-4.24,.62-.12,1.13-1.76,1.64-5.05,.5-3.29,.82-7.12,1.01-11.53,.16-2.65,.39-4.99,.68-7.02,.67-3.54,1.1-6.19,1.23-7.84,.13-1.65,.15-4.36,.15-8.16,.01-9.54,.41-19.1,.15-28.64-.13-1.6-.16-3.84,.01-6.6,.18-2.78,.26-4.98-.02-6.35-.22-1.07-.38-2.35-.36-3.7,.02-1.18-.14-2.38-.4-3.54-.29-1.29-.46-2.48-.59-3.5-.15-1.12-.39-1.98-.6-2.5-.25-.63-.43-1.33-.54-2.01-.13-.8-.42-1.34-.72-1.6-.35-.32-.67-.81-.82-1.24-.22-.61-.52-.88-1.02-.64-.5,.24-.78,.15-.87-.17-.07-.24-.51-.21-1.25,.11Z"/>
    <path class="cls-1" d="M174.84,33.37c2.38-.37,4.24-.28,5.33,.27,.59,.3,1.12,.85,1.57,1.53,.45,.69,1.38,2.31,2.68,4.98,1.43,2.92,2.59,5.06,3.46,5.95,1.34,1.37,2.43,2.98,3.16,4.8,.73,1.83,1.35,4.49,1.95,7.96,.8,4.69,1.46,8.16,1.8,10.16,.56,3.09,1.21,7.06,2,11.94,.82,5.08,1.55,8.68,2.03,10.6,.52,2.1,.75,5.14,.74,9.08-.01,3.55,.04,7.44,.18,11.65,.12,3.61,.1,6.46-.09,8.49-.19,2.03-.32,4.23-.28,6.46,.04,2.43-.13,6.51-.58,12.05-.45,5.54-.88,9.34-1.3,11.5-.24,1.58-.34,3.24-.32,4.99,.06,4.68-.51,8.9-1.66,12.63-.69,2.25-1.14,4.23-1.42,5.85-.28,1.63-1.07,3.29-2.1,4.86-.91,1.38-1.78,3.12-2.62,5.09-.84,1.98-1.23,3.52-1.33,4.51-.08,.83-.53,2.09-1.24,3.5-.56,1.12-1.3,2.53-1.88,4.07-.57,1.53-1.3,2.33-2.07,2.41-.82,.09-1.8,.75-2.68,1.69-.75,.8-2.38,1.03-4.85,.55-2.47-.48-3.93-1.16-4.48-1.92-.32-.54-.93-1.26-1.79-1.89-.78-.57-2.09-1.99-3.59-4.27-1.46-2.22-2.97-4.25-4.51-5.96-1.33-1.47-2.17-2.55-2.54-3.2-.37-.65-1.25-2.47-2.56-5.48-1.53-3.5-2.6-5.62-3.11-6.1-.72-.69-1.53-1.95-2.43-3.56-.89-1.6-1.53-2.96-1.9-4.07-.57-1.74-.96-2.86-1.18-3.31-.35-.59-.81-1.97-1.4-4.07-.59-2.09-1.19-3.75-1.61-4.86-.48-1.26-.83-2.47-1-3.47-.17-1-.59-3.17-1.25-6.42-.59-2.91-1.1-6.55-1.39-10.86-.28-4.14-.51-7.58-.69-10-.16-2.09-.03-5.15,.33-8.99,.35-3.66,.62-6.9,.76-9.7,.13-2.62,.36-4.47,.64-5.59,.84-3.18,1.41-6.73,1.78-10.59,.36-3.85,1.43-8.43,3.18-13.63,1.75-5.2,3.87-10.16,6.29-14.86,.52-.93,1.5-2.76,2.93-5.48,.87-1.55,1.69-3.06,2.49-4.38,.96-1.57,2.3-3.68,3.72-6.21,1.3-2.31,2.09-3.7,2.41-4.08s.81-.42,1.23-.41c.64,.02,1.38-.41,1.81-.89,.43-.48,1.03-1,1.77-1.47,1.32-.84,3.22-1.48,5.61-1.85Zm-2.76,19.13c-1.21-.19-1.86-.07-2.01,.24-.16,.35-1.05,.83-2.55,1.44-1.55,.63-2.65,1.57-3.31,2.81-.66,1.24-1.48,2.28-2.31,3.09-.95,.93-1.62,1.84-2.01,2.56-.39,.72-.83,1.29-1.32,1.71s-.98,1.43-1.46,3.05c-.49,1.62-1.27,3.66-2.35,6.14-2.14,5.27-3.49,9.54-4.1,12.82-.21,1.38-.49,2.75-.84,4.23-1.12,4.28-1.72,7.94-1.84,10.93-.08,2.12-.2,4.36-.36,6.72-.81,10.24-.49,17.48,.47,21.22,.59,2.58,.95,4.5,1.08,5.74,.18,1.76,.98,5.35,2.44,11.02,1.46,5.68,2.73,9.54,3.5,11.56,.68,1.78,1.45,3.75,2.39,5.72,.94,1.97,1.46,2.97,1.57,2.99,.27,.06,.9,1.08,1.9,3.06,1,1.98,1.85,3.05,2.55,3.19,.65,.14,1.38,.84,2.2,2.1,.82,1.27,1.53,1.96,2.13,2.08,.6,.12,1.31,.6,2.15,1.44,1.45,1.64,3.08,2.33,4.95,2.03,1.87-.3,3.5-1.52,4.81-3.68,1.61-2.63,2.54-4.06,2.71-4.04,.64,.06,1.4-1.59,2.33-5.06,.93-3.47,1.7-7.6,2.31-12.41,.41-2.88,.85-5.4,1.31-7.56,.99-3.71,1.62-6.5,1.85-8.3,.23-1.8,.4-4.83,.48-9.08,.2-10.83,.68-21.93-.65-32.76-.3-1.94-.56-4.59-.67-7.82-.11-3.22-.33-5.88-.9-7.66-.46-1.45-.89-3.08-1.1-4.72-.19-1.46-.64-3.02-1.25-4.63-.68-1.78-1.21-3.42-1.66-4.79-.51-1.56-1.08-2.78-1.56-3.62-.56-.99-1.04-2.03-1.45-3.03-.47-1.16-1.08-2.06-1.69-2.68-.71-.72-1.37-1.57-1.83-2.33-.63-1.03-1.29-1.68-2.04-1.74s-1.29-.43-1.63-.99c-.27-.44-1.06-.77-2.26-.97Z"/>
    <path class="cls-1" d="M210.32,31.87c.78,1.22,1.87,4.44,3.32,9.95,1.01,3.84,1.81,6.44,2.37,7.66,.88,2.26,1.61,4.29,2.19,6.05,.9,2.48,1.6,4.2,2.11,5.11,.5,.91,.98,2.82,1.51,5.67,.53,2.87,1.92,7.38,4.08,13.59,2.16,6.2,3.5,9.38,4.04,9.41,.91,.05,1.8-1.79,2.63-5.4,.36-1.81,1.03-3.53,2.03-5.01,.68-1.01,1.22-2.07,1.51-3.19,.29-1.12,.95-3.93,1.85-8.22,.69-3.29,1.34-5.56,2.07-6.65,.66-.99,1.3-2.45,1.62-4.24,.32-1.79,.57-2.83,.86-3.07,.67-.45,.89-1.94,.72-4.33-.12-1.64-.13-2.7-.07-3.19,.06-.48,.42-1.3,.94-2.37,.63-1.29,1.09-1.86,1.46-1.65,.38,.2,1.07,1.3,2.08,3.28,.93,1.83,1.52,3.17,1.74,4,.22,.84,.43,2.19,.61,4.1,.24,3.64-.02,7.5-.87,11.71-.55,2.71-.87,4.95-.88,6.57-.02,2.6-.36,4.24-1.08,4.81-.31,.29-.74,1.45-1.33,3.52-.59,2.08-1.06,4-1.37,5.73-.31,1.74-.95,3.62-1.99,5.47-.97,1.72-1.79,3.62-2.26,5.63-1.12,4.39-1.92,7.27-2.32,8.5-.4,1.23-.9,2.22-1.49,2.98-1.24,1.52-2.1,4.36-2.58,8.56-.49,4.21-.78,11.21-1.03,20.59-.26,9.78-.53,15.42-.6,17.31-.11,2.94-.17,4.4-.31,7.29-.15,3.33-.43,6.92-.81,10.71-.27,2.71-.42,4.49-.45,5.36-.03,.88,.02,2.02,.15,3.36,.19,1.85,.16,4.78-.15,8.64-.31,3.87-.7,6.42-1.13,7.79-.94,3.08-2.03,4.43-3.32,4.07-1.29-.36-2.06-2.35-2.15-5.92-.3-11.84,.41-24.12,.6-36.14,.23-14.75,.16-29.59,.73-44.36,.12-3.17-.03-5.83-.45-7.99-.42-2.16-1.23-4.23-2.33-6.19-1.09-1.93-2.57-5.84-4.48-11.54-1.91-5.69-3.33-10.72-4.34-14.96-.93-3.89-1.67-6.43-2.13-7.5-.47-1.09-.93-2.69-1.34-4.64-.41-1.96-.86-3.34-1.13-4.04-.4-1.02-.91-2.87-1.49-5.29-.58-2.41-1.14-4.08-1.64-4.93-.49-.83-.8-1.88-.94-3.06-.15-1.18-.22-3.1-.21-5.73,.01-2.95,.16-4.85,.46-5.8,.29-.95,.93-1.86,1.89-2.56,1.24-.9,2.33-.72,3.11,.5Z"/>
    <path class="cls-1" d="M259.57,43.44c.84,.54,1.66,1.29,2.46,2.24,.4,.58,1.1,1.05,2.03,1.42,.89,.35,1.83,1.12,2.84,2.27,1.05,1.19,2.44,2.28,3.8,3.37,.36,.29,.78,.68,1.25,1.1,.47,.43,.85,.78,1.15,1.05,.29,.27,.49,.46,.59,.56,.44,.42,.74,.57,.87,.44,.42-.22,.92,2.68,3.72,4.54,2.8,1.86,4.69,4.22,5.54,6.93,.85,2.72,.44,5.41-.15,5.65-.59,.24-2.1-.56-4.49-2.42-1.53-1.19-2.67-2.16-3.25-2.45-.27-.14-2.68-1.6-7.25-4.23-.36-.21-.87-.51-1.55-.9-2.8-1.6-4.48-2.26-4.91-2.09-.43,.17-.44,1.59-.02,4.26,.1,.6,.18,1.06,.22,1.36,.42,3.14,.68,5.48,.67,6.77,0,.96,.14,2.21,.47,3.55,.59,2.43,1.22,8.38,1.39,18.32,.07,2.49,.32,4.28,.79,5.31,.47,1.03,1.52,2.16,3.06,3.02,1.74,.98,3.03,1.31,3.25,1.09,.29-.28,.72-.45,1.29-.21,.63,.26,1.06,.05,1.34-.42,.22-.36,.75-.41,1.43-.12,.67,.29,1.21,.89,1.64,1.68,.48,.86,1.17,1.23,1.73,.99,.64-.28,1.43,.17,2.34,1.25,.68,.8,1.74,1.51,2.93,2.1,1.18,.59,2.05,.76,2.52,.5,.44-.24,.99,.05,1.61,.94,1.57,2.4,2.87,2.63,3.86,1.02,.78-1.28,2.07-1.06,3.73,.72,1.66,1.78,2.83,4.21,3.42,7.32,.59,3.11,.45,6.23-.55,9-.78,2.17-1.59,3.54-2.1,3.97-.51,.44-1.17,.29-1.88-.63-1.48-1.83-2.99-2.37-4.29-1.49-.76,.52-1.59,.66-2.29,.22-1.49-.94-2.38-1.78-2.59-1.95-.67-.54-1.89-.69-2.73-.46-.72,.2-2.49-.11-5.23-1.11-2.74-1-4.5-1.96-5.26-2.74-.57-.58-1.28-.85-1.88-.7-.73,.18-1.71,.5-2.72,.6-1.2,.12-2.03,.79-2.3,2.15-.28,1.36-.48,5.92-1.06,13.29-.33,4.2-.6,6.78-.62,7.75-.02,.98,.01,2.68,.15,5.01,.16,2.7,.19,5.56,.01,8.46-.34,5.46-.19,9.22,.57,11.41,.76,2.2,2.67,3.99,5.64,5.36,2.52,1.17,4.14,1.52,4.75,1.02,.61-.49,1.34-.4,2.09,.27,1.4,1.25,2.55,1.54,3.29,.75,.6-.63,1.65-.92,3.18-.78,1.53,.15,2.55,.58,2.95,1.27,.47,.82,1.44,1.87,2.73,3,1.39,1.2,2.18,2.89,2.25,4.98,.07,2.09-.63,4.53-2.11,7.24-1.01,1.76-1.87,2.77-2.53,3.06-.67,.29-2.38,.53-4.39,.13-.68-.14-1.73-.4-3.01-.58-1.28-.17-2.06-.28-2.32-.34-1.25-.26-2.88-.47-4.69-.39-1.82,.09-2.88,.22-3.22,.44-.62,.61-2.13,.58-4.46-.18-2.33-.76-3.62-1.63-3.94-2.5-.32-.87-.91-1.58-1.64-2.16-.62-.49-1.27-1.64-1.95-3.39-.68-1.75-1.08-3.32-1.19-4.66,0-.32-.04-.99-.17-2.02-.13-1.03-.2-1.8-.22-2.3-.19-1.06-.27-1.92-.24-2.57,.03-.65,.18-1.76,.43-3.35,.38-2.38,.55-4.55,.46-6.44-.09-1.9-.06-4.23,.14-6.94,.58-10.12,.8-20.3,1.23-30.37,.08-1.8,.17-4.27,.21-7.36,.07-4.91,.09-12.37-.21-21.97-.02-.69-.07-2.36-.19-4.95s-.22-4.46-.28-5.65c-.23-4.08-.46-8.44-.72-12.93-.19-3.21-.48-7.53-1.01-12.7-.46-4.43-.71-7.16-.74-8.21-.04-1.09-.31-2.54-.68-4.18-.76-2.88-.81-5.48-.27-7.72,.54-2.24,1.41-2.8,2.57-2.26,.51,.24,.99,.05,1.19-.48,.17-.44,.67-.41,1.51,.14Z"/>
    <path class="cls-1" d="M301.56,58.51c1.21,.65,2.02,.99,2.41,1.02,.55,.04,1.66,.78,3.29,2.23,1.64,1.46,2.79,2.76,3.47,3.89,1.64,2.75,2.46,4.97,2.53,6.57,.07,1.6-.63,2.4-2.04,2.35-1.29-.04-1.89,.38-1.78,1.26,.1,.89,.99,3.05,2.41,6.59,5,12.43,6.42,20.63,6.54,22.47,.09,1.38,.56,4.13,1.31,8.23,.75,4.1,1.28,7.26,1.76,9.38,.93,3.94,1.6,10.11,1.19,18.38-.14,2.88-.18,5.52-.16,7.79,.02,2.44-.28,4.96-.79,7.42-.9,4.42-1.9,9.67-3.23,15.56-1.33,5.89-2.18,9.03-2.08,9.74,.09,.71,1.03,1.07,2.72,.97,5.53-.33,7.26,2.56,4.59,8.79-1.46,3.39-3.83,5.87-6.94,7.5-3.12,1.63-7.94,2.75-14.58,2.84-2.73,.04-4.39-.38-4.82-1.22-.42-.85-.15-2.78,.8-5.81,1.08-3.46,2-5.81,2.79-6.84,.79-1.03,2.08-1.64,3.87-1.87,.06,0,.15,0,.27-.01,1.54-.22,2.63-1.04,3.24-2.46,.61-1.42,2.17-6.25,3.64-15.06,.16-.94,.26-1.66,.33-2.14,1.64-10.97,1.73-17.66,1.76-19.16,.13-5.48,.03-11.97-.34-18.83-.89-16.07-3.23-24.28-3.85-25.79-.5-1.23-1.34-4.78-2.81-10.33-1.55-5.85-3.05-9.77-4.02-12.02-.84-1.95-1.42-3.08-1.74-3.35-.32-.27-1.53-.78-3.52-1.35-1.35-.39-2.44-.87-3.18-1.53-.74-.65-1.65-1.85-2.76-3.55-2.04-3.14-3.18-5.52-3.4-7.26-.22-1.73,.51-2.63,2.29-2.7,1.4-.05,2.13-.31,2.17-.8,.04-.49,.81-.75,2.45-.74,1.63,.01,2.56-.31,2.83-.65,.43-.55,1.75-.37,3.39,.51Z"/>
    <path class="cls-1" d="M351.27,74.17c.16,.08,.81,.51,1.97,1.3,2.55,1.71,7.12,4.74,12.18,10.3,1.66,1.82,3.06,3.55,4.3,5.05,1.1,1.33,2.16,2.81,3.07,4.47,.91,1.67,1.8,3.21,2.74,4.58,.94,1.36,2.04,3.42,3.09,6.23,1.19,3.17,2.05,5.99,2.71,8.27,.52,1.8,1.37,5.12,1.73,10.16,.35,5.04,0,8.04-.13,8.69-.17,.78-.29,3.16-.85,6.92-1.62,10.91-5.61,17.68-7.97,21.46-1.83,2.92-3.23,4.89-3.95,5.91-2.29,3.28-5.57,6.66-9.59,10.46-4.02,3.8-5.94,5.47-5.73,4.83,.02-.19,.21-.63,.49-1.4,.28-.77,.46-1.31,.62-1.53,.16-.22,1.35-2.06,2.54-6.37,.37-1.34,.72-2.51,1.05-3.44,.37-1.03,.61-2.13,.72-3.26,.19-2.47,.48-5.19,.91-8.08,.32-1.73,.45-3.14,.21-3.74-.17-.42-.28-1.82-.12-4.13,.16-2.31,.06-3.97-.18-4.94-.24-.96-.41-2.43-.58-4.41-.17-1.98-.49-3.9-.95-5.77-.46-1.86-.74-3.29-.77-4.2-.02-.76-.27-2.07-.81-3.95-.54-1.87-1.07-4.11-1.71-6.62-.64-2.51-1.49-4.67-2.4-6.45-.91-1.77-1.61-3.26-1.96-4.42-.35-1.14-1.32-3-2.95-5.49-1.52-2.31-2.76-4.3-3.69-5.89-3.31-5.48-5.06-7.17-4.74-5.28,.27,1.63,1.99,6.32,3.9,14.52,1.98,8.5,2.34,14.45,2.38,17.26,.04,2.66,.2,5.88,.38,9.57,.18,3.69,.16,6.41,.06,8.16-.02,.32-.08,1.12-.21,2.38-.13,1.27-.3,2.88-.57,4.83-.26,1.95-.53,3.7-.79,5.22-1.12,6.57-2.41,10.63-2.99,12.4-.47,1.45-1.52,5.1-3.62,10.51-1.87,4.83-3.36,7.72-4.09,8.89-.72,1.17-1.7,2.24-2.9,3.12-1.86,1.35-3.01,1.55-3.35,.6-.17-.42,.24-1.8,1.14-4.22,.9-2.42,2.64-6.81,4.58-13.58,2.45-8.53,3.3-14.9,3.6-18.52,.3-3.61,.56-7.03,.94-10.1,.36-2.92,.63-6.39,.58-10.38-.06-3.99-.22-6.86-.26-8.79-.04-1.77-.25-3.45-.64-5.03-.38-1.58-.64-3.42-.72-5.44-.09-2.17-.59-4.85-1.5-7.88-.67-2.25-1.44-5.28-2.5-8.89-1.06-3.61-1.88-6.08-2.22-7.49-.27-1.11-.95-3.33-2.24-6.47-1.35-3.28-2.2-5.48-2.44-6.58-.31-1.37-.81-2.54-1.24-3.42-.48-.98-.76-2.31-.8-3.72-.04-1.29,.62-1.94,1.93-1.88,1.31,.06,2.66,.81,4.03,2.21,.22,.25,.51,.56,.89,.95,.37,.38,.77,.8,1.18,1.25,.41,.45,.72,.8,.93,1.05,1.27,1.3,2.36,2.56,3.31,3.7,1.09,1.3,2.3,2.58,3.53,3.81,1.23,1.24,2.2,2.38,2.9,3.42,.93,1.2,1.69,2.26,2.3,3.02,.66,.82,1.68,2.12,2.74,3.86,.88,1.45,1.56,2.44,2.03,2.88,.44,.41,.96,1.21,1.56,2.28,.68,1.23,2.12,3.48,4.07,6.78,1.95,3.29,3.2,5.53,3.97,6.66,1.53,2.41,2.5,4.8,2.92,7.21,.27,1.56,.7,3.4,1.33,5.36,.59,1.83,1.07,3.44,1.3,4.73,.25,1.43,.72,3.17,1.35,5.16,.68,2.14,.99,3.99,.98,5.55-.02,3.42,.19,6.44,.73,8.98,.37,1.38,.5,3.22,.27,5.49-.2,2.02-.35,3.66-.31,4.86,.04,1.09-.15,2.2-.5,3.27-.3,.91-.45,1.76-.49,2.46-.04,.7,.07,.9,.35,.71,.43-.3,1.59-1.95,3.02-5.09,4.49-9.91,5.89-20.18,5.97-30.55,.04-4.64-.76-8.6-1.17-11.29-.37-2.42-.93-4.62-1.7-6.49-.83-2.02-1.79-4.61-2.9-7.58-1.05-2.83-1.84-4.41-2.11-4.78-.28-.37-1.45-2.94-4.22-7.3-2.78-4.36-5-6.88-6-7.94-.92-.97-2.17-2.49-3.93-4.41-1.75-1.92-2.74-2.91-2.81-3.07-.08-.19-.4-.54-.87-1-.38-.37-.49-.51-.34-.43Z"/>
  </g>
  <path class="cls-2" d="M202.96,226.19c-15.9,0-31.63-2.82-46.02-8.21-12.42,3.85-25.49,5.79-38.96,5.79-61.85,0-112.17-42.19-112.17-94.06S56.13,35.65,117.98,35.65c.93,0,1.87,0,2.81,.03,21.12-19.1,50.45-29.87,82.17-29.87s61.32,11.08,82.37,30.09c2.72-.16,5.45-.25,8.18-.25,61.85,0,112.17,42.19,112.17,94.06s-50.32,94.06-112.17,94.06c-14.38,0-28.71-2.33-41.98-6.78-15.08,6.04-31.67,9.2-48.56,9.2Z"/>
</svg>