<?xml version="1.0" encoding="UTF-8"?>
<svg id="Layer_1" xmlns="http://www.w3.org/2000/svg" version="1.1" viewBox="0 0 283.46 141.73">
  <!-- Generator: Adobe Illustrator 29.4.0, SVG Export Plug-In . SVG Version: 2.1.0 Build 152)  -->
  <defs>
    <style>
      .st0 {
        fill: #f1ccbf;
      }
    </style>
  </defs>
  <path class="st0" d="M280.63,70.87c0-2.23-1.67-4.25-4.36-5.71,2.69-1.46,4.36-3.48,4.36-5.71,0-4.46-6.68-8.08-14.93-8.08H17.76c-8.24,0-14.93,3.62-14.93,8.08,0,2.23,1.67,4.25,4.36,5.71-2.69,1.46-4.36,3.48-4.36,5.71s1.67,4.25,4.36,5.71c-2.69,1.46-4.36,3.48-4.36,5.71,0,4.46,6.68,8.08,14.93,8.08h247.94c8.24,0,14.93-3.62,14.93-8.08,0-2.23-1.67-4.25-4.36-5.71,2.69-1.46,4.36-3.48,4.36-5.71Z"/>
</svg>